<svg width="128" height="18" viewBox="0 0 128 18" fill="none" xmlns="http://www.w3.org/2000/svg">
<path d="M111.598 16.0003C111.433 16.0003 111.299 15.9406 111.194 15.8211C111.105 15.7016 111.075 15.5598 111.105 15.3955L114.196 0.925113C114.226 0.760846 114.308 0.61898 114.442 0.499513C114.592 0.380046 114.748 0.320312 114.913 0.320312H120.916C121.857 0.320312 122.76 0.454713 123.626 0.723513C124.492 0.992313 125.247 1.38805 125.889 1.91071C126.546 2.41845 127.031 3.06058 127.345 3.83711C127.658 4.59871 127.726 5.47978 127.546 6.48031C127.442 7.12245 127.337 7.68991 127.233 8.18271C127.128 8.66058 126.994 9.20565 126.83 9.81791C126.471 11.2216 125.948 12.3864 125.262 13.3123C124.575 14.2232 123.686 14.9027 122.596 15.3507C121.521 15.7838 120.192 16.0003 118.609 16.0003H111.598ZM117.511 11.6323H118.967C119.296 11.6323 119.602 11.5726 119.886 11.4531C120.184 11.3187 120.438 11.1171 120.647 10.8483C120.871 10.5795 121.035 10.236 121.14 9.81791C121.259 9.38485 121.356 8.99658 121.431 8.65311C121.521 8.30965 121.595 7.96618 121.655 7.62271C121.73 7.26431 121.797 6.88351 121.857 6.48031C121.961 5.85311 121.857 5.39765 121.543 5.11391C121.244 4.83018 120.841 4.68831 120.334 4.68831H118.99L117.511 11.6323Z" fill="black"/>
<path d="M95.6911 16.0004C95.5268 16.0004 95.3999 15.9407 95.3103 15.8212C95.2207 15.7018 95.1908 15.5599 95.2207 15.3956L95.7135 13.066C95.7433 12.9764 95.8031 12.8047 95.8927 12.5508C95.9972 12.282 96.2137 12.0506 96.5423 11.8564L96.8111 11.6772C98.618 10.5423 100.126 9.58657 101.336 8.81004C102.56 8.0335 103.501 7.36897 104.158 6.81644C104.815 6.24897 105.189 5.7487 105.278 5.31564C105.323 5.10657 105.323 4.90497 105.278 4.71084C105.248 4.5167 105.039 4.41964 104.651 4.41964C104.352 4.41964 104.106 4.4943 103.912 4.64364C103.718 4.77804 103.561 4.93484 103.441 5.11404C103.337 5.29324 103.247 5.44257 103.173 5.56204C103.053 5.7711 102.904 5.91297 102.725 5.98764C102.56 6.04737 102.374 6.07724 102.165 6.07724H97.9535C97.8191 6.07724 97.7145 6.03244 97.6399 5.94284C97.5652 5.8383 97.5428 5.71884 97.5727 5.58444C97.7668 4.73324 98.1103 3.97164 98.6031 3.29964C99.0959 2.6127 99.7007 2.02284 100.417 1.53004C101.134 1.03724 101.933 0.663903 102.814 0.410036C103.695 0.141236 104.614 0.00683594 105.569 0.00683594C106.928 0.00683594 108.063 0.208436 108.974 0.611636C109.9 0.999903 110.557 1.56737 110.945 2.31404C111.349 3.0607 111.431 3.96417 111.192 5.02444C111.028 5.84577 110.669 6.60737 110.117 7.30924C109.564 8.0111 108.855 8.6831 107.989 9.32524C107.123 9.95244 106.137 10.602 105.032 11.274L104.853 11.386H109.579C109.743 11.386 109.87 11.4458 109.96 11.5652C110.049 11.6847 110.079 11.8266 110.049 11.9908L109.333 15.3956C109.303 15.5599 109.213 15.7018 109.064 15.8212C108.915 15.9407 108.758 16.0004 108.593 16.0004H95.6911Z" fill="black"/>
<path d="M79.6423 16.0003C79.478 16.0003 79.3436 15.9406 79.2391 15.8211C79.1495 15.7016 79.1196 15.5598 79.1495 15.3955L80.0903 10.9827L77.1783 1.01471C77.1186 0.835512 77.1484 0.678713 77.2679 0.544312C77.4023 0.394979 77.5666 0.320312 77.7607 0.320312H81.7479C82.0466 0.320312 82.2556 0.394979 82.3751 0.544312C82.4946 0.693647 82.5618 0.805647 82.5767 0.880313L83.8535 5.38271L87.0567 0.880313C87.1015 0.805647 87.2135 0.693647 87.3927 0.544312C87.5719 0.394979 87.8108 0.320312 88.1095 0.320312H92.5447C92.7538 0.320312 92.8807 0.402446 92.9255 0.566713C92.9852 0.73098 92.9628 0.880313 92.8583 1.01471L85.6903 10.9827L84.7495 15.3955C84.7196 15.5598 84.63 15.7016 84.4807 15.8211C84.3463 15.9406 84.197 16.0003 84.0327 16.0003H79.6423Z" fill="black"/>
<path d="M59.765 16.0003C59.6007 16.0003 59.4738 15.9406 59.3842 15.8211C59.2796 15.7016 59.2423 15.5598 59.2722 15.3955L59.9666 12.1699C60.0114 11.9608 60.086 11.7966 60.1906 11.6771C60.31 11.5427 60.3996 11.4456 60.4594 11.3859L67.8962 4.86751H62.341C62.1767 4.86751 62.0498 4.80778 61.9602 4.68831C61.8706 4.56885 61.8407 4.42698 61.8706 4.26271L62.5874 0.925113C62.6172 0.760846 62.6994 0.61898 62.8338 0.499513C62.9831 0.380046 63.1399 0.320312 63.3042 0.320312H75.5794C75.7436 0.320312 75.8706 0.380046 75.9602 0.499513C76.0647 0.61898 76.102 0.760846 76.0722 0.925113L75.3778 4.10591C75.3479 4.25525 75.2882 4.38965 75.1986 4.50911C75.1239 4.62858 75.0343 4.74058 74.9298 4.84511L67.829 11.4083H73.5186C73.6828 11.4083 73.8098 11.468 73.8994 11.5875C74.0039 11.707 74.0338 11.8488 73.989 12.0131L73.2722 15.3955C73.2423 15.5598 73.1527 15.7016 73.0034 15.8211C72.869 15.9406 72.7196 16.0003 72.5554 16.0003H59.765Z" fill="black"/>
<path d="M45.2943 16.0003C45.13 16.0003 44.9956 15.9406 44.8911 15.8211C44.8015 15.7016 44.7716 15.5598 44.8015 15.3955L47.8927 0.925113C47.9225 0.760846 48.0047 0.61898 48.1391 0.499513C48.2884 0.380046 48.4452 0.320312 48.6095 0.320312H60.1007C60.265 0.320312 60.3919 0.380046 60.4815 0.499513C60.586 0.61898 60.6234 0.760846 60.5935 0.925113L59.9215 4.08351C59.8916 4.24778 59.802 4.38965 59.6527 4.50911C59.5034 4.62858 59.3466 4.68831 59.1823 4.68831H52.4623L52.1487 6.09951H58.3759C58.5402 6.09951 58.6671 6.15925 58.7567 6.27871C58.8612 6.39818 58.8986 6.54005 58.8687 6.70431L58.2415 9.61631C58.2116 9.78058 58.122 9.92245 57.9727 10.0419C57.8234 10.1614 57.6666 10.2211 57.5023 10.2211H51.2751L50.9839 11.6323H57.8831C58.0473 11.6323 58.1743 11.692 58.2639 11.8115C58.3535 11.931 58.3834 12.0728 58.3535 12.2371L57.6815 15.3955C57.6516 15.5598 57.562 15.7016 57.4127 15.8211C57.2783 15.9406 57.1289 16.0003 56.9647 16.0003H45.2943Z" fill="black"/>
<circle cx="9.4" cy="9.00059" r="8.4" fill="#FDC612"/>
<circle cx="17.7999" cy="9.00059" r="8.4" fill="#00B333"/>
<circle cx="26.2" cy="9.00059" r="8.4" fill="#FF4726"/>
</svg>
