<svg width="142" height="26" viewBox="0 0 142 26" fill="none" xmlns="http://www.w3.org/2000/svg">
<path d="M122.158 7.09126V2.63672H139.857V7.09126H133.732V23.0004H128.283V7.09126H122.158Z" fill="white"/>
<path d="M121.114 12.8186C121.114 15.0857 120.673 16.9981 119.792 18.5558C118.91 20.107 117.72 21.2836 116.222 22.0857C114.724 22.8811 113.053 23.2789 111.211 23.2789C109.354 23.2789 107.677 22.8778 106.179 22.0757C104.688 21.267 103.501 20.0871 102.62 18.536C101.745 16.9782 101.307 15.0724 101.307 12.8186C101.307 10.5516 101.745 8.64249 102.62 7.09135C103.501 5.53359 104.688 4.35698 106.179 3.56152C107.677 2.75944 109.354 2.3584 111.211 2.3584C113.053 2.3584 114.724 2.75944 116.222 3.56152C117.72 4.35698 118.91 5.53359 119.792 7.09135C120.673 8.64249 121.114 10.5516 121.114 12.8186ZM115.426 12.8186C115.426 11.5989 115.264 10.5715 114.939 9.73624C114.621 8.89438 114.147 8.25802 113.517 7.82715C112.894 7.38965 112.125 7.1709 111.211 7.1709C110.296 7.1709 109.524 7.38965 108.894 7.82715C108.271 8.25802 107.797 8.89438 107.472 9.73624C107.154 10.5715 106.995 11.5989 106.995 12.8186C106.995 14.0383 107.154 15.0691 107.472 15.911C107.797 16.7462 108.271 17.3825 108.894 17.82C109.524 18.2509 110.296 18.4664 111.211 18.4664C112.125 18.4664 112.894 18.2509 113.517 17.82C114.147 17.3825 114.621 16.7462 114.939 15.911C115.264 15.0691 115.426 14.0383 115.426 12.8186Z" fill="white"/>
<path d="M83.0117 23.0004V2.63672H91.8015C93.3129 2.63672 94.6353 2.93501 95.7688 3.53161C96.9023 4.1282 97.784 4.96674 98.4137 6.04723C99.0434 7.12772 99.3583 8.39051 99.3583 9.83558C99.3583 11.2939 99.0335 12.5567 98.3839 13.6239C97.7409 14.6912 96.8361 15.5131 95.6694 16.0898C94.5093 16.6665 93.1538 16.9549 91.6026 16.9549H86.3526V12.6594H90.489C91.1386 12.6594 91.6921 12.5468 92.1495 12.3214C92.6135 12.0894 92.9682 11.7612 93.2134 11.337C93.4653 10.9128 93.5913 10.4123 93.5913 9.83558C93.5913 9.25225 93.4653 8.75509 93.2134 8.34411C92.9682 7.92649 92.6135 7.60831 92.1495 7.38956C91.6921 7.16418 91.1386 7.05149 90.489 7.05149H88.5401V23.0004H83.0117Z" fill="white"/>
<path d="M62.9961 23.0004V2.63672H68.5245V10.8697H68.8029L74.9279 2.63672H81.3711L74.4904 11.7049L81.5302 23.0004H74.9279L70.354 15.364L68.5245 17.7504V23.0004H62.9961Z" fill="white"/>
<path d="M60.4879 10.2732H54.8799C54.8402 9.80916 54.7341 9.38823 54.5617 9.01039C54.396 8.63255 54.164 8.30774 53.8657 8.03595C53.5741 7.75755 53.2194 7.54542 52.8018 7.39959C52.3842 7.24713 51.9102 7.1709 51.3799 7.1709C50.4519 7.1709 49.6664 7.39628 49.0234 7.84704C48.387 8.29779 47.9031 8.9441 47.5717 9.78596C47.2469 10.6278 47.0845 11.6387 47.0845 12.8186C47.0845 14.0648 47.2502 15.1089 47.5816 15.9507C47.9197 16.786 48.4069 17.4157 49.0433 17.8399C49.6796 18.2575 50.4453 18.4664 51.3402 18.4664C51.8506 18.4664 52.308 18.4034 52.7123 18.2774C53.1167 18.1449 53.468 17.9559 53.7663 17.7107C54.0646 17.4654 54.3065 17.1704 54.4921 16.8257C54.6844 16.4744 54.8136 16.08 54.8799 15.6425L60.4879 15.6823C60.4216 16.544 60.1796 17.4223 59.762 18.3172C59.3444 19.2055 58.7511 20.0274 57.9822 20.7831C57.2199 21.5322 56.2753 22.1354 55.1484 22.5928C54.0215 23.0502 52.7123 23.2789 51.2208 23.2789C49.3515 23.2789 47.6744 22.8778 46.1896 22.0757C44.7114 21.2736 43.5414 20.0937 42.6796 18.536C41.8245 16.9782 41.397 15.0724 41.397 12.8186C41.397 10.5516 41.8345 8.64249 42.7095 7.09135C43.5845 5.53359 44.7644 4.35698 46.2492 3.56152C47.7341 2.75944 49.3913 2.3584 51.2208 2.3584C52.5068 2.3584 53.6901 2.53406 54.7705 2.88539C55.851 3.23671 56.799 3.75044 57.6143 4.42658C58.4296 5.09609 59.0859 5.92137 59.583 6.90243C60.0802 7.88349 60.3818 9.00707 60.4879 10.2732Z" fill="white"/>
<path d="M25.4383 23.0004H19.4724L26.194 2.63672H33.7508L40.4724 23.0004H34.5065L30.052 8.24467H29.8929L25.4383 23.0004ZM24.3247 14.9663H35.5406V19.1026H24.3247V14.9663Z" fill="white"/>
<path d="M12.0796 2.63672H17.5284V16.5969C17.5218 17.9227 17.1871 19.0894 16.5242 20.0969C15.8679 21.0979 14.9598 21.8801 13.7998 22.4435C12.6463 23.0004 11.3173 23.2788 9.81253 23.2788C8.50666 23.2788 7.31348 23.0534 6.23299 22.6026C5.1525 22.1452 4.29075 21.4293 3.64776 20.4549C3.00477 19.4738 2.68659 18.2011 2.69322 16.6367H8.22163C8.24151 17.1471 8.32769 17.578 8.48015 17.9293C8.63924 18.2807 8.85799 18.5458 9.1364 18.7248C9.42144 18.8971 9.76613 18.9833 10.1705 18.9833C10.5815 18.9833 10.9262 18.8938 11.2046 18.7148C11.4896 18.5359 11.7051 18.2707 11.8509 17.9194C11.9967 17.5614 12.073 17.1206 12.0796 16.5969V2.63672Z" fill="white"/>
<path fill-rule="evenodd" clip-rule="evenodd" d="M120.158 7.81233V0.636719H141.857V9.09126H135.732V25.0004H126.283V9.09126H120.628C120.498 8.64361 120.341 8.2173 120.158 7.81233ZM128.283 7.09126V23.0004H133.732V7.09126H139.857V2.63672H122.158V7.09126H128.283Z" fill="#894700"/>
<path fill-rule="evenodd" clip-rule="evenodd" d="M121.532 19.5409L121.53 19.5441C120.472 21.4062 119.014 22.8595 117.166 23.8489L117.16 23.8521C115.348 24.8139 113.351 25.2789 111.211 25.2789C109.056 25.2789 107.05 24.8105 105.235 23.8389L105.226 23.8339C103.389 22.8376 101.937 21.3828 100.881 19.5242L100.876 19.5154C99.7944 17.5901 99.3071 15.3273 99.3071 12.8186C99.3071 10.2994 99.7934 8.03087 100.878 6.10871L100.879 6.10626C101.936 4.23935 103.39 2.78319 105.235 1.79833C105.236 1.79783 105.237 1.79732 105.238 1.79682C107.052 0.826266 109.057 0.358398 111.211 0.358398C113.353 0.358398 115.351 0.827341 117.163 1.79671C119.014 2.78034 120.473 4.2355 121.53 6.10308C122.623 8.02646 123.114 10.2971 123.114 12.8186C123.114 15.3405 122.623 17.6128 121.532 19.5409ZM116.222 3.56152C114.724 2.75944 113.053 2.3584 111.211 2.3584C109.354 2.3584 107.677 2.75944 106.179 3.56152C104.688 4.35698 103.501 5.53359 102.62 7.09135C101.745 8.64249 101.307 10.5516 101.307 12.8186C101.307 15.0724 101.745 16.9782 102.62 18.536C103.501 20.0871 104.688 21.267 106.179 22.0757C107.677 22.8778 109.354 23.2789 111.211 23.2789C113.053 23.2789 114.724 22.8811 116.222 22.0857C117.72 21.2836 118.91 20.107 119.792 18.5558C120.673 16.9981 121.114 15.0857 121.114 12.8186C121.114 10.5516 120.673 8.64249 119.792 7.09135C118.91 5.53359 117.72 4.35698 116.222 3.56152ZM113.072 10.4522L113.068 10.4433C112.868 9.91397 112.623 9.63825 112.388 9.47776L112.378 9.47093L112.368 9.46397C112.145 9.30717 111.799 9.1709 111.211 9.1709C110.623 9.1709 110.269 9.30692 110.035 9.46966L110.031 9.47217C109.798 9.63367 109.547 9.9147 109.339 10.4529C109.134 10.9942 108.995 11.7625 108.995 12.8186C108.995 13.8715 109.133 14.6443 109.339 15.1951C109.544 15.7161 109.791 16.0034 110.033 16.1762C110.269 16.3344 110.625 16.4664 111.211 16.4664C111.803 16.4664 112.153 16.3311 112.378 16.1763C112.624 16.0047 112.872 15.7206 113.07 15.199L113.073 15.191C113.284 14.644 113.426 13.8733 113.426 12.8186C113.426 11.7632 113.284 10.9983 113.075 10.4611L113.072 10.4522ZM113.517 17.82C112.894 18.2509 112.125 18.4664 111.211 18.4664C110.296 18.4664 109.524 18.2509 108.894 17.82C108.271 17.3825 107.797 16.7462 107.472 15.911C107.154 15.0691 106.995 14.0383 106.995 12.8186C106.995 11.5989 107.154 10.5715 107.472 9.73624C107.797 8.89438 108.271 8.25802 108.894 7.82715C109.524 7.38965 110.296 7.1709 111.211 7.1709C112.125 7.1709 112.894 7.38965 113.517 7.82715C114.147 8.25802 114.621 8.89438 114.939 9.73624C115.264 10.5715 115.426 11.5989 115.426 12.8186C115.426 14.0383 115.264 15.0691 114.939 15.911C114.621 16.7462 114.147 17.3825 113.517 17.82Z" fill="#894700"/>
<path fill-rule="evenodd" clip-rule="evenodd" d="M81.0117 25.0004V23.0004H81.5302L81.0117 22.1685V3.11035L81.3711 2.63672H81.0117V0.636719H91.8015C93.5791 0.636719 95.2321 0.989004 96.7003 1.76177C98.1571 2.52848 99.3184 3.6276 100.142 5.04015C100.976 6.47118 101.358 8.09242 101.358 9.83558C101.358 11.597 100.963 13.2312 100.095 14.6601C99.2459 16.0669 98.049 17.144 96.5585 17.8814C95.0727 18.6197 93.4018 18.9549 91.6026 18.9549H90.5401V25.0004H81.0117ZM88.5401 16.9549H91.6026C93.1538 16.9549 94.5094 16.6665 95.6694 16.0898C96.8361 15.5131 97.7409 14.6912 98.3839 13.6239C99.0335 12.5567 99.3583 11.2939 99.3583 9.83558C99.3583 8.39051 99.0434 7.12772 98.4137 6.04723C97.784 4.96674 96.9023 4.1282 95.7688 3.53161C94.6353 2.93501 93.3129 2.63672 91.8015 2.63672H83.0117V23.0004H88.5401V16.9549ZM88.5401 12.6594H90.489C90.5061 12.6594 90.5231 12.6594 90.5401 12.6592C91.1677 12.6534 91.7042 12.5408 92.1495 12.3214C92.6135 12.0894 92.9682 11.7612 93.2134 11.337C93.4653 10.9128 93.5913 10.4123 93.5913 9.83558C93.5913 9.25225 93.4653 8.75509 93.2134 8.34411C92.9682 7.92649 92.6135 7.60831 92.1495 7.38956C91.7042 7.17012 91.1677 7.05751 90.5401 7.05173C90.5231 7.05157 90.5061 7.05149 90.489 7.05149H88.5401V12.6594ZM90.5401 10.6591C90.9269 10.6535 91.1464 10.5849 91.2606 10.5297C91.3921 10.463 91.4449 10.4002 91.482 10.336L91.4878 10.3259L91.4937 10.3159C91.5331 10.2495 91.5913 10.1143 91.5913 9.83558C91.5913 9.54333 91.5304 9.42537 91.5082 9.38923L91.4984 9.37318L91.4889 9.35695C91.4598 9.30748 91.4193 9.25645 91.2967 9.19861L91.281 9.19123L91.2655 9.18358C91.1527 9.128 90.9325 9.05753 90.5401 9.05186V10.6591Z" fill="#894700"/>
<path fill-rule="evenodd" clip-rule="evenodd" d="M60.9961 25.0004V0.636719H70.5245V5.20491L73.9231 0.636719H85.3992L83.8817 2.63672H83.0117V3.78323L76.9165 11.8163L83.0117 21.5962V23.0004H83.8868L85.1333 25.0004H73.7945L70.5245 19.5409V25.0004H60.9961ZM74.9279 23.0004H81.5302L74.4904 11.7049L81.3711 2.63672H74.9279L68.8029 10.8697H68.5245V2.63672H62.9961V23.0004H68.5245V17.7504L70.354 15.364L74.9279 23.0004Z" fill="#894700"/>
<path fill-rule="evenodd" clip-rule="evenodd" d="M62.6624 12.2732H53.044L52.8872 10.444C52.8647 10.1805 52.8087 9.98635 52.7421 9.8404L52.736 9.8271L52.7302 9.81371C52.6743 9.68643 52.6053 9.59322 52.5187 9.51435L52.5016 9.4987L52.4848 9.48267C52.4187 9.41961 52.3172 9.3488 52.1424 9.28778L52.1291 9.28313L52.1159 9.27831C51.9559 9.21988 51.7202 9.1709 51.3799 9.1709C50.7892 9.1709 50.4241 9.3088 50.1753 9.48204C49.9072 9.67318 49.6459 9.97976 49.4351 10.5124C49.2229 11.0653 49.0845 11.817 49.0845 12.8186C49.0845 13.8965 49.229 14.6712 49.4392 15.2094C49.6515 15.73 49.9041 16.0083 50.1468 16.1719C50.403 16.3383 50.77 16.4664 51.3402 16.4664C51.6798 16.4664 51.9275 16.4253 52.1037 16.3722C52.2881 16.31 52.4104 16.2363 52.4961 16.1658C52.5908 16.088 52.6671 15.9966 52.7312 15.8775L52.7376 15.8657C52.8063 15.7402 52.8676 15.5731 52.9025 15.3429L53.162 13.6303L62.6465 13.6975L62.482 15.8357C62.3948 16.9689 62.0794 18.0808 61.5744 19.163L61.572 19.1682C61.0441 20.291 60.3054 21.3041 59.3841 22.2096C58.4112 23.1655 57.2366 23.9037 55.9006 24.4459C54.4873 25.0195 52.9135 25.2789 51.2208 25.2789C49.0561 25.2789 47.0463 24.8117 45.239 23.8354L45.2357 23.8336C43.4022 22.8388 41.9646 21.3752 40.9296 19.5041L40.9264 19.4984C39.8716 17.5768 39.397 15.3205 39.397 12.8186C39.397 10.3002 39.8829 8.03229 40.9665 6.11051C42.0154 4.24367 43.4624 2.78635 45.3016 1.8003C47.1018 0.828465 49.0892 0.358398 51.2208 0.358398C52.6895 0.358398 54.0844 0.559208 55.389 0.983404C56.6907 1.40665 57.8645 2.03668 58.8873 2.88403C59.9242 3.73634 60.7508 4.78231 61.3671 5.99838C61.9974 7.2422 62.3566 8.62266 62.4809 10.1062L62.6624 12.2732ZM57.6143 4.42658C56.799 3.75044 55.851 3.23671 54.7705 2.88539C53.6901 2.53406 52.5068 2.3584 51.2208 2.3584C49.3913 2.3584 47.7341 2.75944 46.2492 3.56152C44.7644 4.35698 43.5845 5.53359 42.7095 7.09135C41.8345 8.64249 41.397 10.5516 41.397 12.8186C41.397 15.0724 41.8245 16.9782 42.6796 18.536C43.5414 20.0937 44.7114 21.2736 46.1896 22.0757C47.6744 22.8778 49.3515 23.2789 51.2208 23.2789C52.7123 23.2789 54.0215 23.0502 55.1484 22.5928C56.2753 22.1354 57.2199 21.5322 57.9822 20.7831C58.7511 20.0274 59.3444 19.2055 59.762 18.3172C59.8617 18.1035 59.9514 17.8908 60.0311 17.6791C60.2852 17.0039 60.4374 16.3383 60.4879 15.6823L54.8799 15.6425C54.8136 16.08 54.6844 16.4744 54.4921 16.8257C54.3065 17.1704 54.0646 17.4654 53.7663 17.7107C53.468 17.9559 53.1167 18.1449 52.7123 18.2774C52.308 18.4034 51.8506 18.4664 51.3402 18.4664C50.4453 18.4664 49.6796 18.2575 49.0433 17.8399C48.4069 17.4157 47.9197 16.786 47.5816 15.9507C47.2502 15.1089 47.0845 14.0648 47.0845 12.8186C47.0845 11.6387 47.2469 10.6278 47.5717 9.78596C47.9031 8.9441 48.387 8.29779 49.0234 7.84704C49.6664 7.39628 50.4519 7.1709 51.3799 7.1709C51.9102 7.1709 52.3842 7.24713 52.8018 7.39959C53.2194 7.54543 53.5741 7.75755 53.8657 8.03595C54.164 8.30774 54.396 8.63255 54.5617 9.01039C54.7341 9.38823 54.8402 9.80916 54.8799 10.2732H60.4879C60.4283 9.56147 60.3069 8.8948 60.1237 8.27317C59.9809 7.78893 59.8007 7.33202 59.583 6.90243C59.0859 5.92137 58.4296 5.09609 57.6143 4.42658Z" fill="#894700"/>
<path fill-rule="evenodd" clip-rule="evenodd" d="M26.9236 25.0004H16.7061L24.748 0.636719H35.1967L43.2386 25.0004H33.0211L31.8444 21.1026H28.1003L26.9236 25.0004ZM33.3298 19.1026L34.5064 23.0004H40.4723L33.7508 2.63672H26.1939L19.4723 23.0004H25.4383L26.6149 19.1026H33.3298ZM27.8636 14.9663H32.0811L30.0519 8.24467H29.8928L27.8636 14.9663Z" fill="#894700"/>
<path fill-rule="evenodd" clip-rule="evenodd" d="M10.0796 0.636719H19.5284V16.6069C19.5201 18.2801 19.0917 19.8332 18.195 21.1962C17.3256 22.5211 16.1313 23.5345 14.6736 24.2426L14.6693 24.2446C13.2012 24.9534 11.5661 25.2788 9.81253 25.2788C8.27284 25.2788 6.81408 25.0121 5.46295 24.4484L5.45333 24.4444C4.01175 23.8342 2.83971 22.8617 1.97844 21.5564L1.97501 21.5512C1.05601 20.149 0.685486 18.4568 0.693234 16.6282L0.701673 14.6367H10.0796V0.636719ZM8.48015 17.9293C8.32769 17.578 8.24151 17.1471 8.22163 16.6367H2.69322C2.69308 16.6686 2.69308 16.7005 2.69322 16.7321C2.69617 17.4251 2.76385 18.06 2.89624 18.6367C3.05439 19.3257 3.3049 19.9318 3.64776 20.4549C4.29075 21.4293 5.1525 22.1452 6.23299 22.6026C7.31348 23.0534 8.50666 23.2788 9.81253 23.2788C11.3173 23.2788 12.6463 23.0004 13.7998 22.4435C14.9598 21.8801 15.8679 21.0979 16.5242 20.0969C17.1871 19.0894 17.5218 17.9227 17.5284 16.5969V2.63672H12.0796V16.5969C12.073 17.1206 11.9967 17.5614 11.8509 17.9194C11.7051 18.2707 11.4896 18.5359 11.2046 18.7148C10.9262 18.8938 10.5815 18.9833 10.1705 18.9833C9.76613 18.9833 9.42144 18.8971 9.1364 18.7248C8.85799 18.5458 8.63924 18.2807 8.48015 17.9293Z" fill="#894700"/>
</svg>
