<svg width="169" height="20" viewBox="0 0 169 20" fill="none" xmlns="http://www.w3.org/2000/svg">
<path d="M40.304 15C40.1867 15 40.0907 14.9573 40.016 14.872C39.952 14.7867 39.9307 14.6853 39.952 14.568L42.16 4.232C42.1813 4.11467 42.24 4.01333 42.336 3.928C42.4427 3.84267 42.5547 3.8 42.672 3.8H45.872C45.9893 3.8 46.08 3.84267 46.144 3.928C46.2187 4.01333 46.2453 4.11467 46.224 4.232L44.624 11.72H49.056C49.1733 11.72 49.264 11.7627 49.328 11.848C49.392 11.9333 49.4133 12.0347 49.392 12.152L48.88 14.568C48.8587 14.6853 48.7947 14.7867 48.688 14.872C48.592 14.9573 48.4853 15 48.368 15H40.304ZM54.9805 15.16C53.9032 15.16 53.0018 15 52.2765 14.68C51.5618 14.36 51.0498 13.8747 50.7405 13.224C50.4312 12.5733 50.3618 11.752 50.5325 10.76C50.6072 10.3227 50.6978 9.848 50.8045 9.336C50.9218 8.824 51.0338 8.33867 51.1405 7.88C51.3752 6.93067 51.7858 6.14667 52.3725 5.528C52.9698 4.89867 53.7005 4.42933 54.5645 4.12C55.4285 3.8 56.3832 3.64 57.4285 3.64C58.2712 3.64 59.0072 3.736 59.6365 3.928C60.2765 4.10933 60.7992 4.36533 61.2045 4.696C61.6098 5.02667 61.8925 5.41067 62.0525 5.848C62.2232 6.27467 62.2658 6.728 62.1805 7.208C62.1592 7.304 62.1058 7.38933 62.0205 7.464C61.9352 7.528 61.8445 7.56 61.7485 7.56H58.2125C58.0952 7.56 58.0045 7.544 57.9405 7.512C57.8765 7.48 57.8232 7.43733 57.7805 7.384C57.7592 7.33067 57.7165 7.256 57.6525 7.16C57.5992 7.05333 57.5032 6.96267 57.3645 6.888C57.2365 6.80267 57.0392 6.76 56.7725 6.76C56.3778 6.76 56.0525 6.86133 55.7965 7.064C55.5512 7.256 55.3805 7.55467 55.2845 7.96C55.1778 8.39733 55.0765 8.84533 54.9805 9.304C54.8845 9.76267 54.7938 10.2213 54.7085 10.68C54.6232 11.16 54.6712 11.5067 54.8525 11.72C55.0338 11.9333 55.3218 12.04 55.7165 12.04C55.9832 12.04 56.2232 12.0027 56.4365 11.928C56.6605 11.8533 56.8472 11.7307 56.9965 11.56C57.1565 11.3893 57.2632 11.1707 57.3165 10.904V10.888H56.5645C56.4472 10.888 56.3565 10.8453 56.2925 10.76C56.2285 10.6747 56.2072 10.5733 56.2285 10.456L56.5965 8.68C56.6178 8.56267 56.6818 8.46133 56.7885 8.376C56.8952 8.29067 57.0072 8.248 57.1245 8.248H61.5245C61.6418 8.248 61.7325 8.29067 61.7965 8.376C61.8605 8.46133 61.8818 8.56267 61.8605 8.68L61.4285 10.76C61.2365 11.72 60.8312 12.5253 60.2125 13.176C59.6045 13.8267 58.8472 14.3227 57.9405 14.664C57.0445 14.9947 56.0578 15.16 54.9805 15.16ZM66.6754 15.16C65.502 15.16 64.5367 15 63.7794 14.68C63.022 14.36 62.478 13.9387 62.1474 13.416C61.8274 12.8933 61.7207 12.3387 61.8274 11.752C61.8487 11.656 61.8967 11.576 61.9714 11.512C62.0567 11.4373 62.1474 11.4 62.2434 11.4H65.2834C65.454 11.4 65.5767 11.4267 65.6514 11.48C65.7367 11.5227 65.8274 11.5867 65.9234 11.672C66.0087 11.7467 66.0994 11.816 66.1954 11.88C66.302 11.9333 66.4247 11.976 66.5634 12.008C66.702 12.0293 66.8567 12.04 67.0274 12.04C67.39 12.04 67.6887 12.0027 67.9234 11.928C68.158 11.8427 68.2914 11.7307 68.3234 11.592C68.3554 11.464 68.318 11.3573 68.2114 11.272C68.1047 11.1867 67.9074 11.112 67.6194 11.048C67.3314 10.9733 66.9314 10.904 66.4194 10.84C65.598 10.7227 64.91 10.5093 64.3554 10.2C63.8007 9.88 63.406 9.45867 63.1714 8.936C62.9474 8.41333 62.9154 7.8 63.0754 7.096C63.2994 6.008 63.8754 5.16 64.8034 4.552C65.7314 3.944 66.9207 3.64 68.3714 3.64C69.0967 3.64 69.7527 3.74667 70.3394 3.96C70.9367 4.16267 71.4434 4.43467 71.8594 4.776C72.286 5.10667 72.6007 5.464 72.8034 5.848C73.006 6.232 73.0754 6.6 73.0114 6.952C73.0007 7.048 72.9527 7.13333 72.8674 7.208C72.782 7.272 72.6967 7.304 72.6114 7.304H69.4114C69.262 7.304 69.1447 7.28267 69.0594 7.24C68.9847 7.19733 68.9047 7.13333 68.8194 7.048C68.7767 6.99467 68.6914 6.936 68.5634 6.872C68.4354 6.79733 68.2594 6.76 68.0354 6.76C67.7687 6.76 67.566 6.80267 67.4274 6.888C67.2887 6.96267 67.2034 7.06933 67.1714 7.208C67.15 7.304 67.1767 7.39467 67.2514 7.48C67.3367 7.56533 67.4967 7.64 67.7314 7.704C67.9767 7.768 68.334 7.832 68.8034 7.896C69.8487 8.024 70.6594 8.248 71.2354 8.568C71.822 8.888 72.2114 9.304 72.4034 9.816C72.5954 10.3173 72.6167 10.9147 72.4674 11.608C72.222 12.7707 71.614 13.656 70.6434 14.264C69.6727 14.8613 68.35 15.16 66.6754 15.16ZM77.9753 15.16C76.8339 15.16 75.8953 14.9733 75.1593 14.6C74.4339 14.2267 73.9166 13.7573 73.6073 13.192C73.3086 12.616 73.2233 12.024 73.3513 11.416C73.4686 10.8827 73.7033 10.4187 74.0553 10.024C74.4179 9.61867 74.8126 9.304 75.2393 9.08C75.0153 8.824 74.8446 8.50933 74.7273 8.136C74.6206 7.752 74.6153 7.34133 74.7113 6.904C74.8286 6.33867 75.0846 5.81067 75.4793 5.32C75.8739 4.81867 76.4233 4.41333 77.1273 4.104C77.8419 3.79467 78.7273 3.64 79.7833 3.64C80.8393 3.64 81.6979 3.81067 82.3593 4.152C83.0313 4.49333 83.5059 4.93067 83.7833 5.464C84.0713 5.99733 84.1513 6.54667 84.0233 7.112C83.9379 7.54933 83.7833 7.928 83.5593 8.248C83.3459 8.55733 83.0473 8.83467 82.6633 9.08C83.0473 9.37867 83.3139 9.75733 83.4633 10.216C83.6233 10.664 83.6446 11.1547 83.5273 11.688C83.3993 12.2853 83.1219 12.8507 82.6953 13.384C82.2793 13.9173 81.6873 14.3493 80.9193 14.68C80.1513 15 79.1699 15.16 77.9753 15.16ZM78.2313 12.472C78.4446 12.472 78.6419 12.4347 78.8233 12.36C79.0153 12.2853 79.1753 12.1787 79.3033 12.04C79.4313 11.8907 79.5166 11.72 79.5593 11.528C79.6126 11.2293 79.5486 11 79.3673 10.84C79.1966 10.6693 78.9513 10.584 78.6313 10.584C78.4179 10.584 78.2153 10.6213 78.0233 10.696C77.8419 10.7707 77.6873 10.8773 77.5593 11.016C77.4419 11.1547 77.3619 11.3253 77.3193 11.528C77.2553 11.8267 77.3086 12.0613 77.4793 12.232C77.6606 12.392 77.9113 12.472 78.2313 12.472ZM79.1753 8.072C79.3886 8.072 79.5806 8.03467 79.7513 7.96C79.9219 7.87467 80.0606 7.768 80.1673 7.64C80.2739 7.512 80.3433 7.368 80.3753 7.208C80.4286 6.96267 80.3806 6.76 80.2313 6.6C80.0819 6.42933 79.8473 6.344 79.5273 6.344C79.3139 6.344 79.1219 6.38133 78.9513 6.456C78.7913 6.53067 78.6579 6.63733 78.5513 6.776C78.4446 6.904 78.3753 7.048 78.3433 7.208C78.3006 7.44267 78.3486 7.64533 78.4873 7.816C78.6259 7.98667 78.8553 8.072 79.1753 8.072ZM89.3346 15.16C88.1933 15.16 87.2546 14.9733 86.5186 14.6C85.7933 14.2267 85.276 13.7573 84.9666 13.192C84.668 12.616 84.5826 12.024 84.7106 11.416C84.828 10.8827 85.0626 10.4187 85.4146 10.024C85.7773 9.61867 86.172 9.304 86.5986 9.08C86.3746 8.824 86.204 8.50933 86.0866 8.136C85.98 7.752 85.9746 7.34133 86.0706 6.904C86.188 6.33867 86.444 5.81067 86.8386 5.32C87.2333 4.81867 87.7826 4.41333 88.4866 4.104C89.2013 3.79467 90.0866 3.64 91.1426 3.64C92.1986 3.64 93.0573 3.81067 93.7186 4.152C94.3906 4.49333 94.8653 4.93067 95.1426 5.464C95.4306 5.99733 95.5106 6.54667 95.3826 7.112C95.2973 7.54933 95.1426 7.928 94.9186 8.248C94.7053 8.55733 94.4066 8.83467 94.0226 9.08C94.4066 9.37867 94.6733 9.75733 94.8226 10.216C94.9826 10.664 95.004 11.1547 94.8866 11.688C94.7586 12.2853 94.4813 12.8507 94.0546 13.384C93.6386 13.9173 93.0466 14.3493 92.2786 14.68C91.5106 15 90.5293 15.16 89.3346 15.16ZM89.5906 12.472C89.804 12.472 90.0013 12.4347 90.1826 12.36C90.3746 12.2853 90.5346 12.1787 90.6626 12.04C90.7906 11.8907 90.876 11.72 90.9186 11.528C90.972 11.2293 90.908 11 90.7266 10.84C90.556 10.6693 90.3106 10.584 89.9906 10.584C89.7773 10.584 89.5746 10.6213 89.3826 10.696C89.2013 10.7707 89.0466 10.8773 88.9186 11.016C88.8013 11.1547 88.7213 11.3253 88.6786 11.528C88.6146 11.8267 88.668 12.0613 88.8386 12.232C89.02 12.392 89.2706 12.472 89.5906 12.472ZM90.5346 8.072C90.748 8.072 90.94 8.03467 91.1106 7.96C91.2813 7.87467 91.42 7.768 91.5266 7.64C91.6333 7.512 91.7026 7.368 91.7346 7.208C91.788 6.96267 91.74 6.76 91.5906 6.6C91.4413 6.42933 91.2066 6.344 90.8866 6.344C90.6733 6.344 90.4813 6.38133 90.3106 6.456C90.1506 6.53067 90.0173 6.63733 89.9106 6.776C89.804 6.904 89.7346 7.048 89.7026 7.208C89.66 7.44267 89.708 7.64533 89.8466 7.816C89.9853 7.98667 90.2146 8.072 90.5346 8.072ZM100.694 15.16C99.5527 15.16 98.614 14.9733 97.878 14.6C97.1527 14.2267 96.6353 13.7573 96.326 13.192C96.0273 12.616 95.942 12.024 96.07 11.416C96.1873 10.8827 96.422 10.4187 96.774 10.024C97.1367 9.61867 97.5313 9.304 97.958 9.08C97.734 8.824 97.5633 8.50933 97.446 8.136C97.3393 7.752 97.334 7.34133 97.43 6.904C97.5473 6.33867 97.8033 5.81067 98.198 5.32C98.5927 4.81867 99.142 4.41333 99.846 4.104C100.561 3.79467 101.446 3.64 102.502 3.64C103.558 3.64 104.417 3.81067 105.078 4.152C105.75 4.49333 106.225 4.93067 106.502 5.464C106.79 5.99733 106.87 6.54667 106.742 7.112C106.657 7.54933 106.502 7.928 106.278 8.248C106.065 8.55733 105.766 8.83467 105.382 9.08C105.766 9.37867 106.033 9.75733 106.182 10.216C106.342 10.664 106.363 11.1547 106.246 11.688C106.118 12.2853 105.841 12.8507 105.414 13.384C104.998 13.9173 104.406 14.3493 103.638 14.68C102.87 15 101.889 15.16 100.694 15.16ZM100.95 12.472C101.163 12.472 101.361 12.4347 101.542 12.36C101.734 12.2853 101.894 12.1787 102.022 12.04C102.15 11.8907 102.235 11.72 102.278 11.528C102.331 11.2293 102.267 11 102.086 10.84C101.915 10.6693 101.67 10.584 101.35 10.584C101.137 10.584 100.934 10.6213 100.742 10.696C100.561 10.7707 100.406 10.8773 100.278 11.016C100.161 11.1547 100.081 11.3253 100.038 11.528C99.974 11.8267 100.027 12.0613 100.198 12.232C100.379 12.392 100.63 12.472 100.95 12.472ZM101.894 8.072C102.107 8.072 102.299 8.03467 102.47 7.96C102.641 7.87467 102.779 7.768 102.886 7.64C102.993 7.512 103.062 7.368 103.094 7.208C103.147 6.96267 103.099 6.76 102.95 6.6C102.801 6.42933 102.566 6.344 102.246 6.344C102.033 6.344 101.841 6.38133 101.67 6.456C101.51 6.53067 101.377 6.63733 101.27 6.776C101.163 6.904 101.094 7.048 101.062 7.208C101.019 7.44267 101.067 7.64533 101.206 7.816C101.345 7.98667 101.574 8.072 101.894 8.072ZM115.357 15.16C114.632 15.16 113.949 15.08 113.309 14.92C112.68 14.7493 112.136 14.488 111.677 14.136C111.229 13.784 110.904 13.336 110.701 12.792C110.509 12.248 110.477 11.592 110.605 10.824C110.68 10.3867 110.77 9.91733 110.877 9.416C110.994 8.91467 111.106 8.43467 111.213 7.976C111.469 6.984 111.864 6.168 112.397 5.528C112.93 4.888 113.597 4.41333 114.397 4.104C115.197 3.79467 116.12 3.64 117.165 3.64C117.805 3.64 118.44 3.72 119.069 3.88C119.709 4.02933 120.274 4.26933 120.765 4.6C121.256 4.93067 121.624 5.35733 121.869 5.88C122.114 6.392 122.162 7.01067 122.013 7.736C121.992 7.832 121.938 7.91733 121.853 7.992C121.768 8.056 121.677 8.088 121.581 8.088H118.317C118.146 8.088 118.029 8.056 117.965 7.992C117.901 7.91733 117.853 7.79467 117.821 7.624C117.778 7.28267 117.666 7.05333 117.485 6.936C117.314 6.81867 117.09 6.76 116.813 6.76C116.461 6.76 116.157 6.856 115.901 7.048C115.656 7.22933 115.474 7.56533 115.357 8.056C115.133 8.93067 114.941 9.82667 114.781 10.744C114.696 11.2347 114.738 11.576 114.909 11.768C115.08 11.9493 115.341 12.04 115.693 12.04C115.97 12.04 116.226 11.976 116.461 11.848C116.696 11.72 116.898 11.496 117.069 11.176C117.165 10.9947 117.261 10.872 117.357 10.808C117.453 10.744 117.586 10.712 117.757 10.712H121.021C121.117 10.712 121.192 10.7493 121.245 10.824C121.309 10.888 121.33 10.968 121.309 11.064C121.138 11.7893 120.866 12.4133 120.493 12.936C120.13 13.448 119.682 13.8693 119.149 14.2C118.626 14.5307 118.045 14.776 117.405 14.936C116.765 15.0853 116.082 15.16 115.357 15.16ZM124.836 15.16C124.377 15.16 123.951 15.096 123.556 14.968C123.172 14.8293 122.847 14.616 122.58 14.328C122.324 14.0293 122.148 13.6453 122.052 13.176C121.956 12.7067 121.961 12.136 122.068 11.464C122.121 11.2187 122.164 11.0053 122.196 10.824C122.239 10.6427 122.287 10.4347 122.34 10.2C122.5 9.57067 122.713 9.02667 122.98 8.568C123.247 8.09867 123.556 7.71467 123.908 7.416C124.271 7.11733 124.671 6.89333 125.108 6.744C125.545 6.59467 126.015 6.52 126.516 6.52C127.124 6.52 127.593 6.59467 127.924 6.744C128.255 6.89333 128.521 7.08533 128.724 7.32L128.772 7.112C128.793 6.99467 128.852 6.89333 128.948 6.808C129.055 6.72267 129.167 6.68 129.284 6.68H131.988C132.105 6.68 132.196 6.72267 132.26 6.808C132.335 6.89333 132.361 6.99467 132.34 7.112L130.756 14.568C130.735 14.6853 130.671 14.7867 130.564 14.872C130.468 14.9573 130.361 15 130.244 15H127.524C127.407 15 127.311 14.9573 127.236 14.872C127.172 14.7867 127.151 14.6853 127.172 14.568L127.252 14.2C126.932 14.488 126.585 14.7227 126.212 14.904C125.849 15.0747 125.391 15.16 124.836 15.16ZM126.612 12.296C126.815 12.296 126.98 12.2587 127.108 12.184C127.236 12.1093 127.337 12.0027 127.412 11.864C127.497 11.7253 127.567 11.56 127.62 11.368C127.684 11.1227 127.732 10.9253 127.764 10.776C127.796 10.616 127.828 10.4187 127.86 10.184C127.892 10.0133 127.892 9.86933 127.86 9.752C127.828 9.63467 127.759 9.544 127.652 9.48C127.556 9.416 127.417 9.384 127.236 9.384C127.044 9.384 126.884 9.42133 126.756 9.496C126.628 9.57067 126.527 9.67733 126.452 9.816C126.377 9.95467 126.308 10.12 126.244 10.312C126.201 10.472 126.159 10.648 126.116 10.84C126.073 11.032 126.041 11.208 126.02 11.368C125.999 11.56 125.993 11.7253 126.004 11.864C126.025 12.0027 126.084 12.1093 126.18 12.184C126.276 12.2587 126.42 12.296 126.612 12.296ZM136.199 15.16C135.431 15.16 134.791 15.0853 134.279 14.936C133.777 14.776 133.383 14.5787 133.095 14.344C132.817 14.0987 132.625 13.848 132.519 13.592C132.412 13.3253 132.375 13.0853 132.407 12.872C132.428 12.7547 132.487 12.6533 132.583 12.568C132.679 12.4827 132.78 12.44 132.887 12.44H135.671C135.681 12.44 135.692 12.44 135.703 12.44C135.713 12.44 135.724 12.44 135.735 12.44C135.873 12.4507 135.991 12.4987 136.087 12.584C136.183 12.6587 136.284 12.7333 136.391 12.808C136.497 12.8827 136.631 12.92 136.791 12.92C136.876 12.92 136.961 12.8987 137.047 12.856C137.143 12.8133 137.196 12.7547 137.207 12.68C137.228 12.584 137.217 12.4987 137.175 12.424C137.132 12.3493 137.004 12.2747 136.791 12.2C136.577 12.1147 136.215 12.024 135.703 11.928C135.233 11.832 134.796 11.6827 134.391 11.48C133.985 11.2773 133.681 10.9947 133.479 10.632C133.276 10.2693 133.233 9.81067 133.351 9.256C133.447 8.79733 133.692 8.36 134.087 7.944C134.481 7.528 135.009 7.18667 135.671 6.92C136.332 6.65333 137.1 6.52 137.975 6.52C138.636 6.52 139.207 6.59467 139.687 6.744C140.167 6.89333 140.561 7.08533 140.871 7.32C141.18 7.55467 141.399 7.80533 141.527 8.072C141.665 8.33867 141.713 8.584 141.671 8.808C141.66 8.92533 141.607 9.02667 141.511 9.112C141.425 9.19733 141.335 9.24 141.239 9.24H138.711C138.689 9.24 138.663 9.24 138.631 9.24C138.599 9.24 138.572 9.24 138.551 9.24C138.401 9.24 138.273 9.20267 138.167 9.128C138.071 9.04267 137.969 8.96267 137.863 8.888C137.767 8.80267 137.639 8.76 137.479 8.76C137.404 8.76 137.329 8.78667 137.255 8.84C137.18 8.88267 137.132 8.94133 137.111 9.016C137.089 9.10133 137.1 9.18667 137.143 9.272C137.196 9.34667 137.335 9.42133 137.559 9.496C137.793 9.56 138.177 9.63467 138.711 9.72C139.457 9.82667 140.028 10.024 140.423 10.312C140.817 10.6 141.073 10.9307 141.191 11.304C141.319 11.6773 141.345 12.0453 141.271 12.408C141.153 12.9733 140.876 13.464 140.439 13.88C140.001 14.296 139.425 14.616 138.711 14.84C137.996 15.0533 137.159 15.16 136.199 15.16ZM141.988 15C141.871 15 141.78 14.9573 141.716 14.872C141.641 14.7867 141.615 14.6853 141.636 14.568L143.22 7.112C143.241 6.99467 143.305 6.89333 143.412 6.808C143.519 6.72267 143.631 6.68 143.748 6.68H146.612C146.729 6.68 146.82 6.72267 146.884 6.808C146.948 6.89333 146.969 6.99467 146.948 7.112L145.364 14.568C145.343 14.6853 145.279 14.7867 145.172 14.872C145.076 14.9573 144.969 15 144.852 15H141.988ZM144.02 5.8C143.903 5.8 143.807 5.75733 143.732 5.672C143.668 5.58667 143.647 5.48533 143.668 5.368L144.084 3.432C144.105 3.31467 144.169 3.21333 144.276 3.128C144.383 3.04267 144.495 3 144.612 3H147.316C147.433 3 147.524 3.04267 147.588 3.128C147.652 3.21333 147.673 3.31467 147.652 3.432L147.236 5.368C147.215 5.48533 147.151 5.58667 147.044 5.672C146.948 5.75733 146.841 5.8 146.724 5.8H144.02ZM147.16 15C147.043 15 146.952 14.9573 146.888 14.872C146.813 14.7867 146.787 14.6853 146.808 14.568L148.392 7.112C148.413 6.99467 148.477 6.89333 148.584 6.808C148.691 6.72267 148.803 6.68 148.92 6.68H151.72C151.837 6.68 151.928 6.72267 151.992 6.808C152.056 6.89333 152.077 6.99467 152.056 7.112L151.944 7.64C152.285 7.33067 152.685 7.06933 153.144 6.856C153.603 6.632 154.115 6.52 154.68 6.52C155.277 6.52 155.795 6.648 156.232 6.904C156.669 7.16 156.979 7.55467 157.16 8.088C157.352 8.62133 157.357 9.30933 157.176 10.152L156.232 14.568C156.211 14.6853 156.147 14.7867 156.04 14.872C155.944 14.9573 155.837 15 155.72 15H152.664C152.547 15 152.451 14.9573 152.376 14.872C152.312 14.7867 152.291 14.6853 152.312 14.568L153.224 10.264C153.288 9.976 153.267 9.75733 153.16 9.608C153.053 9.45867 152.872 9.384 152.616 9.384C152.36 9.384 152.147 9.45867 151.976 9.608C151.805 9.75733 151.688 9.976 151.624 10.264L150.712 14.568C150.691 14.6853 150.627 14.7867 150.52 14.872C150.424 14.9573 150.317 15 150.2 15H147.16ZM162.021 15.16C161.093 15.16 160.309 15.0267 159.669 14.76C159.029 14.4933 158.56 14.0933 158.261 13.56C157.973 13.0267 157.883 12.3707 157.989 11.592C158.021 11.3467 158.064 11.096 158.117 10.84C158.171 10.5733 158.235 10.3227 158.309 10.088C158.533 9.29867 158.864 8.64267 159.301 8.12C159.749 7.58667 160.325 7.18667 161.029 6.92C161.733 6.65333 162.571 6.52 163.541 6.52C164.416 6.52 165.173 6.65333 165.813 6.92C166.464 7.18667 166.949 7.58667 167.269 8.12C167.6 8.64267 167.707 9.29867 167.589 10.088C167.547 10.3227 167.499 10.5733 167.445 10.84C167.392 11.096 167.333 11.3467 167.269 11.592C167.056 12.3707 166.736 13.0267 166.309 13.56C165.883 14.0933 165.317 14.4933 164.613 14.76C163.92 15.0267 163.056 15.16 162.021 15.16ZM162.405 12.6C162.715 12.6 162.923 12.5147 163.029 12.344C163.147 12.1627 163.259 11.8853 163.365 11.512C163.408 11.352 163.461 11.128 163.525 10.84C163.589 10.552 163.632 10.328 163.653 10.168C163.707 9.816 163.712 9.54933 163.669 9.368C163.637 9.176 163.467 9.08 163.157 9.08C162.859 9.08 162.651 9.176 162.533 9.368C162.416 9.54933 162.309 9.816 162.213 10.168C162.171 10.328 162.117 10.552 162.053 10.84C161.989 11.128 161.947 11.352 161.925 11.512C161.872 11.8853 161.861 12.1627 161.893 12.344C161.936 12.5147 162.107 12.6 162.405 12.6Z" fill="#F1D789"/>
<circle cx="8" cy="10" r="8" fill="#FDC612"/>
<circle cx="16" cy="10" r="8" fill="#00B333"/>
<circle cx="24" cy="10" r="8" fill="#FF4726"/>
</svg>
