<svg width="175" height="19" viewBox="0 0 175 19" fill="none" xmlns="http://www.w3.org/2000/svg">
<path d="M166.396 17.223C165.096 17.223 163.999 17.0363 163.103 16.663C162.207 16.2896 161.55 15.7296 161.132 14.983C160.728 14.2363 160.601 13.3179 160.751 12.2278C160.796 11.8843 160.855 11.5334 160.93 11.175C161.005 10.8016 161.094 10.4507 161.199 10.1222C161.512 9.01709 161.975 8.09869 162.588 7.36695C163.215 6.62029 164.021 6.06029 165.007 5.68695C165.992 5.31362 167.165 5.12695 168.524 5.12695C169.748 5.12695 170.808 5.31362 171.704 5.68695C172.615 6.06029 173.295 6.62029 173.743 7.36695C174.206 8.09869 174.355 9.01709 174.191 10.1222C174.131 10.4507 174.064 10.8016 173.989 11.175C173.914 11.5334 173.832 11.8843 173.743 12.2278C173.444 13.3179 172.996 14.2363 172.399 14.983C171.801 15.7296 171.01 16.2896 170.024 16.663C169.054 17.0363 167.844 17.223 166.396 17.223ZM166.933 13.639C167.366 13.639 167.657 13.5195 167.807 13.2806C167.971 13.0267 168.128 12.6384 168.277 12.1158C168.337 11.8918 168.412 11.5782 168.501 11.175C168.591 10.7718 168.65 10.4582 168.68 10.2342C168.755 9.74135 168.762 9.36802 168.703 9.11415C168.658 8.84535 168.419 8.71095 167.986 8.71095C167.568 8.71095 167.277 8.84535 167.112 9.11415C166.948 9.36802 166.799 9.74135 166.664 10.2342C166.605 10.4582 166.53 10.7718 166.44 11.175C166.351 11.5782 166.291 11.8918 166.261 12.1158C166.186 12.6384 166.172 13.0267 166.216 13.2806C166.276 13.5195 166.515 13.639 166.933 13.639Z" fill="black"/>
<path d="M145.59 16.999C145.425 16.999 145.298 16.9392 145.209 16.8198C145.104 16.7003 145.067 16.5584 145.097 16.3942L147.314 5.95575C147.344 5.79149 147.434 5.64962 147.583 5.53015C147.733 5.41069 147.889 5.35095 148.054 5.35095H151.974C152.138 5.35095 152.265 5.41069 152.354 5.53015C152.444 5.64962 152.474 5.79149 152.444 5.95575L152.287 6.69495C152.765 6.26189 153.325 5.89602 153.967 5.59735C154.609 5.28375 155.326 5.12695 156.118 5.12695C156.954 5.12695 157.678 5.30615 158.29 5.66455C158.903 6.02295 159.336 6.57549 159.59 7.32215C159.858 8.06882 159.866 9.03202 159.612 10.2118L158.29 16.3942C158.261 16.5584 158.171 16.7003 158.022 16.8198C157.887 16.9392 157.738 16.999 157.574 16.999H153.295C153.131 16.999 152.997 16.9392 152.892 16.8198C152.802 16.7003 152.773 16.5584 152.802 16.3942L154.079 10.3686C154.169 9.96535 154.139 9.65922 153.99 9.45015C153.84 9.24109 153.586 9.13655 153.228 9.13655C152.87 9.13655 152.571 9.24109 152.332 9.45015C152.093 9.65922 151.929 9.96535 151.839 10.3686L150.562 16.3942C150.533 16.5584 150.443 16.7003 150.294 16.8198C150.159 16.9392 150.01 16.999 149.846 16.999H145.59Z" fill="black"/>
<path d="M138.349 16.9992C138.185 16.9992 138.058 16.9395 137.968 16.82C137.864 16.7006 137.826 16.5587 137.856 16.3944L140.074 5.95602C140.104 5.79175 140.193 5.64989 140.343 5.53042C140.492 5.41095 140.649 5.35122 140.813 5.35122H144.823C144.987 5.35122 145.114 5.41095 145.203 5.53042C145.293 5.64989 145.323 5.79175 145.293 5.95602L143.075 16.3944C143.045 16.5587 142.956 16.7006 142.807 16.82C142.672 16.9395 142.523 16.9992 142.359 16.9992H138.349ZM141.194 4.11922C141.029 4.11922 140.895 4.05949 140.791 3.94002C140.701 3.82055 140.671 3.67869 140.701 3.51442L141.283 0.804019C141.313 0.639753 141.403 0.497886 141.552 0.378419C141.701 0.258952 141.858 0.199219 142.023 0.199219H145.808C145.972 0.199219 146.099 0.258952 146.189 0.378419C146.279 0.497886 146.308 0.639753 146.279 0.804019L145.696 3.51442C145.666 3.67869 145.577 3.82055 145.427 3.94002C145.293 4.05949 145.144 4.11922 144.979 4.11922H141.194Z" fill="black"/>
<path d="M130.244 17.223C129.169 17.223 128.273 17.1184 127.556 16.9094C126.854 16.6854 126.301 16.4091 125.898 16.0806C125.51 15.7371 125.241 15.3862 125.092 15.0278C124.942 14.6544 124.89 14.3184 124.935 14.0198C124.965 13.8555 125.047 13.7136 125.181 13.5942C125.316 13.4747 125.458 13.415 125.607 13.415H129.505C129.519 13.415 129.534 13.415 129.549 13.415C129.564 13.415 129.579 13.415 129.594 13.415C129.788 13.4299 129.953 13.4971 130.087 13.6166C130.221 13.7211 130.363 13.8256 130.513 13.9302C130.662 14.0347 130.849 14.087 131.073 14.087C131.192 14.087 131.311 14.0571 131.431 13.9974C131.565 13.9376 131.64 13.8555 131.655 13.751C131.685 13.6166 131.67 13.4971 131.61 13.3926C131.55 13.288 131.371 13.1835 131.073 13.079C130.774 12.9595 130.266 12.8326 129.549 12.6982C128.892 12.5638 128.28 12.3547 127.713 12.071C127.145 11.7872 126.719 11.3915 126.436 10.8838C126.152 10.376 126.092 9.73389 126.257 8.95735C126.391 8.31522 126.734 7.70295 127.287 7.12055C127.839 6.53815 128.579 6.06029 129.505 5.68695C130.43 5.31362 131.506 5.12695 132.73 5.12695C133.656 5.12695 134.455 5.23149 135.127 5.44055C135.799 5.64962 136.351 5.91842 136.785 6.24695C137.218 6.57549 137.524 6.92642 137.703 7.29975C137.897 7.67309 137.964 8.01655 137.905 8.33015C137.89 8.49442 137.815 8.63629 137.681 8.75575C137.561 8.87522 137.434 8.93495 137.3 8.93495H133.761C133.731 8.93495 133.693 8.93495 133.649 8.93495C133.604 8.93495 133.566 8.93495 133.537 8.93495C133.327 8.93495 133.148 8.88269 132.999 8.77815C132.865 8.65869 132.723 8.54669 132.573 8.44215C132.439 8.32269 132.26 8.26295 132.036 8.26295C131.931 8.26295 131.827 8.30029 131.722 8.37495C131.618 8.43469 131.55 8.51682 131.521 8.62135C131.491 8.74082 131.506 8.86029 131.565 8.97975C131.64 9.08429 131.834 9.18882 132.148 9.29335C132.476 9.38295 133.014 9.48749 133.761 9.60695C134.806 9.75629 135.605 10.0326 136.157 10.4358C136.71 10.839 137.068 11.3019 137.233 11.8246C137.412 12.3472 137.449 12.8624 137.345 13.3702C137.18 14.1616 136.792 14.8486 136.18 15.431C135.567 16.0134 134.761 16.4614 133.761 16.775C132.76 17.0736 131.588 17.223 130.244 17.223Z" fill="black"/>
<path d="M114.336 17.223C113.694 17.223 113.097 17.1334 112.544 16.9542C112.007 16.76 111.551 16.4614 111.178 16.0582C110.82 15.64 110.573 15.1024 110.439 14.4454C110.304 13.7883 110.312 12.9894 110.461 12.0486C110.536 11.7051 110.596 11.4064 110.64 11.1526C110.7 10.8987 110.767 10.6075 110.842 10.279C111.066 9.39789 111.365 8.63629 111.738 7.99415C112.111 7.33709 112.544 6.79949 113.037 6.38135C113.545 5.96322 114.105 5.64962 114.717 5.44055C115.329 5.23149 115.986 5.12695 116.688 5.12695C117.54 5.12695 118.197 5.23149 118.66 5.44055C119.122 5.64962 119.496 5.91842 119.78 6.24695L119.847 5.95575C119.877 5.79149 119.959 5.64962 120.093 5.53015C120.242 5.41069 120.399 5.35095 120.564 5.35095H124.349C124.513 5.35095 124.64 5.41069 124.73 5.53015C124.834 5.64962 124.872 5.79149 124.842 5.95575L122.624 16.3942C122.594 16.5584 122.505 16.7003 122.356 16.8198C122.221 16.9392 122.072 16.999 121.908 16.999H118.1C117.935 16.999 117.801 16.9392 117.696 16.8198C117.607 16.7003 117.577 16.5584 117.607 16.3942L117.719 15.879C117.271 16.2822 116.785 16.6107 116.263 16.8646C115.755 17.1035 115.113 17.223 114.336 17.223ZM116.823 13.2134C117.106 13.2134 117.338 13.1611 117.517 13.0566C117.696 12.952 117.838 12.8027 117.943 12.6086C118.062 12.4144 118.159 12.183 118.234 11.9142C118.324 11.5707 118.391 11.2944 118.436 11.0854C118.48 10.8614 118.525 10.5851 118.57 10.2566C118.615 10.0176 118.615 9.81602 118.57 9.65175C118.525 9.48749 118.428 9.36055 118.279 9.27095C118.144 9.18135 117.95 9.13655 117.696 9.13655C117.428 9.13655 117.204 9.18882 117.024 9.29335C116.845 9.39789 116.703 9.54722 116.599 9.74135C116.494 9.93549 116.397 10.167 116.308 10.4358C116.248 10.6598 116.188 10.9062 116.128 11.175C116.069 11.4438 116.024 11.6902 115.994 11.9142C115.964 12.183 115.957 12.4144 115.972 12.6086C116.001 12.8027 116.084 12.952 116.218 13.0566C116.352 13.1611 116.554 13.2134 116.823 13.2134Z" fill="black"/>
<path d="M101.065 17.2237C100.05 17.2237 99.0943 17.1117 98.1983 16.8877C97.3172 16.6488 96.5556 16.2829 95.9135 15.7901C95.2863 15.2973 94.8308 14.6701 94.5471 13.9085C94.2783 13.1469 94.2335 12.2285 94.4127 11.1533C94.5172 10.541 94.6442 9.88397 94.7935 9.1821C94.9578 8.48024 95.1146 7.80824 95.2639 7.1661C95.6223 5.7773 96.1748 4.6349 96.9215 3.7389C97.6682 2.8429 98.6015 2.17837 99.7215 1.7453C100.841 1.31224 102.133 1.0957 103.597 1.0957C104.493 1.0957 105.381 1.2077 106.262 1.4317C107.158 1.64077 107.95 1.97677 108.637 2.4397C109.324 2.90264 109.839 3.49997 110.182 4.2317C110.526 4.9485 110.593 5.81464 110.384 6.8301C110.354 6.9645 110.279 7.08397 110.16 7.1885C110.04 7.2781 109.913 7.3229 109.779 7.3229H105.209C104.971 7.3229 104.806 7.2781 104.717 7.1885C104.627 7.08397 104.56 6.91224 104.515 6.6733C104.455 6.19544 104.299 5.87437 104.045 5.7101C103.806 5.54584 103.492 5.4637 103.104 5.4637C102.611 5.4637 102.185 5.5981 101.827 5.8669C101.484 6.12077 101.23 6.59117 101.065 7.2781C100.752 8.50264 100.483 9.75704 100.259 11.0413C100.14 11.7282 100.199 12.2061 100.438 12.4749C100.677 12.7288 101.043 12.8557 101.536 12.8557C101.924 12.8557 102.283 12.7661 102.611 12.5869C102.94 12.4077 103.223 12.0941 103.462 11.6461C103.597 11.3922 103.731 11.2205 103.865 11.1309C104 11.0413 104.187 10.9965 104.425 10.9965H108.995C109.129 10.9965 109.234 11.0488 109.309 11.1533C109.398 11.2429 109.428 11.3549 109.398 11.4893C109.159 12.5048 108.779 13.3784 108.256 14.1101C107.748 14.8269 107.121 15.4168 106.374 15.8797C105.643 16.3426 104.829 16.6861 103.933 16.9101C103.037 17.1192 102.081 17.2237 101.065 17.2237Z" fill="black"/>
<path d="M78.5737 16.9984C78.4094 16.9984 78.275 16.9386 78.1705 16.8192C78.0809 16.6997 78.051 16.5578 78.0809 16.3936L79.0217 11.9808L76.1097 2.01276C76.05 1.83356 76.0798 1.67676 76.1993 1.54236C76.3337 1.39303 76.498 1.31836 76.6921 1.31836H80.6793C80.978 1.31836 81.187 1.39303 81.3065 1.54236C81.426 1.69169 81.4932 1.80369 81.5081 1.87836L82.7849 6.38076L85.9881 1.87836C86.0329 1.80369 86.1449 1.69169 86.3241 1.54236C86.5033 1.39303 86.7422 1.31836 87.0409 1.31836H91.4761C91.6852 1.31836 91.8121 1.40049 91.8569 1.56476C91.9166 1.72903 91.8942 1.87836 91.7897 2.01276L84.6217 11.9808L83.6809 16.3936C83.651 16.5578 83.5614 16.6997 83.4121 16.8192C83.2777 16.9386 83.1284 16.9984 82.9641 16.9984H78.5737Z" fill="black"/>
<path d="M58.6964 16.9984C58.5321 16.9984 58.4052 16.9386 58.3156 16.8192C58.211 16.6997 58.1737 16.5578 58.2036 16.3936L58.898 13.168C58.9428 12.9589 59.0174 12.7946 59.122 12.6752C59.2414 12.5408 59.331 12.4437 59.3908 12.384L66.8276 5.86556H61.2724C61.1081 5.86556 60.9812 5.80583 60.8916 5.68636C60.802 5.56689 60.7721 5.42503 60.802 5.26076L61.5188 1.92316C61.5486 1.75889 61.6308 1.61703 61.7652 1.49756C61.9145 1.37809 62.0713 1.31836 62.2356 1.31836H74.5108C74.675 1.31836 74.802 1.37809 74.8916 1.49756C74.9961 1.61703 75.0334 1.75889 75.0036 1.92316L74.3092 5.10396C74.2793 5.25329 74.2196 5.38769 74.13 5.50716C74.0553 5.62663 73.9657 5.73863 73.8612 5.84316L66.7604 12.4064H72.45C72.6142 12.4064 72.7412 12.4661 72.8308 12.5856C72.9353 12.705 72.9652 12.8469 72.9204 13.0112L72.2036 16.3936C72.1737 16.5578 72.0841 16.6997 71.9348 16.8192C71.8004 16.9386 71.651 16.9984 71.4868 16.9984H58.6964Z" fill="black"/>
<path d="M44.2257 16.9984C44.0614 16.9984 43.927 16.9386 43.8225 16.8192C43.7329 16.6997 43.703 16.5578 43.7329 16.3936L46.8241 1.92316C46.8539 1.75889 46.9361 1.61703 47.0705 1.49756C47.2198 1.37809 47.3766 1.31836 47.5409 1.31836H59.0321C59.1963 1.31836 59.3233 1.37809 59.4129 1.49756C59.5174 1.61703 59.5547 1.75889 59.5249 1.92316L58.8529 5.08156C58.823 5.24583 58.7334 5.38769 58.5841 5.50716C58.4347 5.62663 58.2779 5.68636 58.1137 5.68636H51.3937L51.0801 7.09756H57.3073C57.4715 7.09756 57.5985 7.15729 57.6881 7.27676C57.7926 7.39623 57.8299 7.53809 57.8001 7.70236L57.1729 10.6144C57.143 10.7786 57.0534 10.9205 56.9041 11.04C56.7547 11.1594 56.5979 11.2192 56.4337 11.2192H50.2065L49.9153 12.6304H56.8145C56.9787 12.6304 57.1057 12.6901 57.1953 12.8096C57.2849 12.929 57.3147 13.0709 57.2849 13.2352L56.6129 16.3936C56.583 16.5578 56.4934 16.6997 56.3441 16.8192C56.2097 16.9386 56.0603 16.9984 55.8961 16.9984H44.2257Z" fill="black"/>
<circle cx="8.4" cy="9.99961" r="8.4" fill="#FDC612"/>
<circle cx="16.7999" cy="9.99961" r="8.4" fill="#00B333"/>
<circle cx="25.2" cy="9.99961" r="8.4" fill="#FF4726"/>
</svg>
