<svg width="16" height="16" viewBox="0 0 16 16" fill="none" xmlns="http://www.w3.org/2000/svg">
<path d="M8.66683 8.11671V6.00004C8.66683 5.81115 8.60283 5.65293 8.47483 5.52537C8.34683 5.39782 8.18861 5.33382 8.00016 5.33337C7.81172 5.33293 7.6535 5.39693 7.5255 5.52537C7.3975 5.65382 7.3335 5.81204 7.3335 6.00004V8.38337C7.3335 8.47226 7.35016 8.55849 7.3835 8.64204C7.41683 8.7256 7.46683 8.80048 7.5335 8.86671L9.21683 10.55C9.35016 10.6834 9.50861 10.75 9.69216 10.75C9.87572 10.75 10.0339 10.6834 10.1668 10.55C10.2891 10.4167 10.3502 10.2585 10.3502 10.0754C10.3502 9.89226 10.2891 9.73937 10.1668 9.61671L8.66683 8.11671ZM8.00016 4.00004C8.18905 4.00004 8.3475 3.93604 8.4755 3.80804C8.6035 3.68004 8.66727 3.52182 8.66683 3.33337C8.66639 3.14493 8.60239 2.98671 8.47483 2.85871C8.34727 2.73071 8.18905 2.66671 8.00016 2.66671C7.81127 2.66671 7.65305 2.73071 7.5255 2.85871C7.39794 2.98671 7.33394 3.14493 7.3335 3.33337C7.33305 3.52182 7.39705 3.68026 7.5255 3.80871C7.65394 3.93715 7.81216 4.00093 8.00016 4.00004ZM12.0002 8.00004C12.0002 8.18893 12.0642 8.34737 12.1922 8.47537C12.3202 8.60337 12.4784 8.66715 12.6668 8.66671C12.8553 8.66626 13.0137 8.60226 13.1422 8.47471C13.2706 8.34715 13.3344 8.18893 13.3335 8.00004C13.3326 7.81115 13.2686 7.65293 13.1415 7.52537C13.0144 7.39782 12.8562 7.33382 12.6668 7.33337C12.4775 7.33293 12.3193 7.39693 12.1922 7.52537C12.0651 7.65382 12.0011 7.81204 12.0002 8.00004ZM8.00016 12C7.81127 12 7.65305 12.064 7.5255 12.192C7.39794 12.32 7.33394 12.4783 7.3335 12.6667C7.33305 12.8552 7.39705 13.0136 7.5255 13.142C7.65394 13.2705 7.81216 13.3343 8.00016 13.3334C8.18816 13.3325 8.34661 13.2685 8.4755 13.1414C8.60439 13.0143 8.66816 12.856 8.66683 12.6667C8.6655 12.4774 8.6015 12.3192 8.47483 12.192C8.34816 12.0649 8.18994 12.0009 8.00016 12ZM4.00016 8.00004C4.00016 7.81115 3.93616 7.65293 3.80816 7.52537C3.68016 7.39782 3.52194 7.33382 3.3335 7.33337C3.14505 7.33293 2.98683 7.39693 2.85883 7.52537C2.73083 7.65382 2.66683 7.81204 2.66683 8.00004C2.66683 8.18804 2.73083 8.34649 2.85883 8.47537C2.98683 8.60426 3.14505 8.66804 3.3335 8.66671C3.52194 8.66537 3.68039 8.60137 3.80883 8.47471C3.93727 8.34804 4.00105 8.18982 4.00016 8.00004ZM8.00016 14.6667C7.07794 14.6667 6.21128 14.4916 5.40016 14.1414C4.58905 13.7912 3.8835 13.3163 3.2835 12.7167C2.6835 12.1172 2.20861 11.4116 1.85883 10.6C1.50905 9.78848 1.33394 8.92182 1.3335 8.00004C1.33305 7.07826 1.50816 6.2116 1.85883 5.40004C2.2095 4.58849 2.68439 3.88293 3.2835 3.28337C3.88261 2.68382 4.58816 2.20893 5.40016 1.85871C6.21216 1.50849 7.07883 1.33337 8.00016 1.33337C8.9215 1.33337 9.78816 1.50849 10.6002 1.85871C11.4122 2.20893 12.1177 2.68382 12.7168 3.28337C13.3159 3.88293 13.7911 4.58849 14.1422 5.40004C14.4933 6.2116 14.6682 7.07826 14.6668 8.00004C14.6655 8.92182 14.4904 9.78848 14.1415 10.6C13.7926 11.4116 13.3177 12.1172 12.7168 12.7167C12.1159 13.3163 11.4104 13.7914 10.6002 14.142C9.78994 14.4927 8.92327 14.6676 8.00016 14.6667Z" fill="#ECC46B"/>
</svg>
