<svg width="32" height="32" viewBox="0 0 32 32" fill="none" xmlns="http://www.w3.org/2000/svg">
<path d="M17.3334 16.2337L20.3334 19.2337C20.5779 19.4781 20.7001 19.7839 20.7001 20.151C20.7001 20.5181 20.5779 20.8345 20.3334 21.1003C20.0667 21.367 19.7503 21.5003 19.3841 21.5003C19.0179 21.5003 18.701 21.367 18.4334 21.1003L15.0667 17.7337C14.9334 17.6003 14.8334 17.4505 14.7667 17.2843C14.7001 17.1181 14.6667 16.9457 14.6667 16.767V12.0003C14.6667 11.6225 14.7947 11.3061 15.0507 11.051C15.3067 10.7959 15.6232 10.6679 16.0001 10.667C16.377 10.6661 16.6939 10.7941 16.9508 11.051C17.2076 11.3079 17.3352 11.6243 17.3334 12.0003V16.2337ZM16.0001 8.00033C15.6223 8.00033 15.3059 7.87233 15.0507 7.61633C14.7956 7.36033 14.6676 7.04388 14.6667 6.66699V5.33366H17.3334V6.66699C17.3334 7.04477 17.2054 7.36166 16.9494 7.61766C16.6934 7.87366 16.377 8.00121 16.0001 8.00033ZM24.0001 16.0003C24.0001 15.6225 24.1281 15.3061 24.3841 15.051C24.6401 14.7959 24.9565 14.6679 25.3334 14.667H26.6668V17.3337H25.3334C24.9556 17.3337 24.6392 17.2057 24.3841 16.9497C24.129 16.6937 24.001 16.3772 24.0001 16.0003ZM16.0001 24.0003C16.3779 24.0003 16.6948 24.1283 16.9508 24.3843C17.2068 24.6403 17.3343 24.9568 17.3334 25.3337V26.667H14.6667V25.3337C14.6667 24.9559 14.7947 24.6394 15.0507 24.3843C15.3067 24.1292 15.6232 24.0012 16.0001 24.0003ZM8.00008 16.0003C8.00008 16.3781 7.87208 16.695 7.61608 16.951C7.36008 17.207 7.04364 17.3345 6.66675 17.3337H5.33342V14.667H6.66675C7.04453 14.667 7.36142 14.795 7.61742 15.051C7.87342 15.307 8.00097 15.6234 8.00008 16.0003ZM16.0001 29.3337C14.1556 29.3337 12.4223 28.9834 10.8001 28.283C9.17786 27.5825 7.76675 26.6328 6.56675 25.4337C5.36675 24.2345 4.41697 22.8234 3.71742 21.2003C3.01786 19.5772 2.66764 17.8439 2.66675 16.0003C2.66586 14.1568 3.01608 12.4234 3.71742 10.8003C4.41875 9.17721 5.36853 7.7661 6.56675 6.56699C7.76497 5.36788 9.17608 4.4181 10.8001 3.71766C12.4241 3.01721 14.1574 2.66699 16.0001 2.66699C17.8427 2.66699 19.5761 3.01721 21.2001 3.71766C22.8241 4.4181 24.2352 5.36788 25.4334 6.56699C26.6316 7.7661 27.5819 9.17721 28.2841 10.8003C28.9863 12.4234 29.3361 14.1568 29.3334 16.0003C29.3308 17.8439 28.9805 19.5772 28.2828 21.2003C27.585 22.8234 26.6352 24.2345 25.4334 25.4337C24.2316 26.6328 22.8205 27.583 21.2001 28.2843C19.5796 28.9857 17.8463 29.3354 16.0001 29.3337ZM26.6668 16.0003C26.6668 13.0225 25.6334 10.5003 23.5667 8.43366C21.5001 6.36699 18.9779 5.33366 16.0001 5.33366C13.0223 5.33366 10.5001 6.36699 8.43342 8.43366C6.36675 10.5003 5.33342 13.0225 5.33342 16.0003C5.33342 18.9781 6.36675 21.5003 8.43342 23.567C10.5001 25.6337 13.0223 26.667 16.0001 26.667C18.9779 26.667 21.5001 25.6337 23.5667 23.567C25.6334 21.5003 26.6668 18.9781 26.6668 16.0003Z" fill="black"/>
</svg>
