<svg width="32" height="32" viewBox="0 0 32 32" fill="none" xmlns="http://www.w3.org/2000/svg">
<path d="M18.7332 20.7333L17.7998 19.8C17.5332 19.5333 17.2167 19.3946 16.8505 19.384C16.4843 19.3733 16.1674 19.5008 15.8998 19.7666C15.6323 20.0324 15.499 20.3493 15.4998 20.7173C15.5007 21.0853 15.6341 21.4017 15.8998 21.6666L17.7998 23.5666C18.0665 23.8333 18.3776 23.9666 18.7332 23.9666C19.0887 23.9666 19.3998 23.8333 19.6665 23.5666L24.4332 18.8C24.6998 18.5333 24.8278 18.2222 24.8172 17.8666C24.8065 17.5111 24.6674 17.2 24.3998 16.9333C24.1332 16.6888 23.8221 16.5613 23.4665 16.5506C23.111 16.54 22.7998 16.6675 22.5332 16.9333L18.7332 20.7333ZM10.6665 20H11.9998C12.3776 20 12.6945 19.872 12.9505 19.616C13.2065 19.36 13.3341 19.0435 13.3332 18.6666C13.3323 18.2897 13.2043 17.9733 12.9492 17.7173C12.6941 17.4613 12.3776 17.3333 11.9998 17.3333H10.6665C10.2887 17.3333 9.97228 17.4613 9.71717 17.7173C9.46206 17.9733 9.33406 18.2897 9.33317 18.6666C9.33228 19.0435 9.46028 19.3604 9.71717 19.6173C9.97406 19.8742 10.2905 20.0017 10.6665 20ZM10.6665 16H17.3332C17.7109 16 18.0278 15.872 18.2838 15.616C18.5398 15.36 18.6674 15.0435 18.6665 14.6666C18.6656 14.2897 18.5376 13.9733 18.2825 13.7173C18.0274 13.4613 17.7109 13.3333 17.3332 13.3333H10.6665C10.2887 13.3333 9.97228 13.4613 9.71717 13.7173C9.46206 13.9733 9.33406 14.2897 9.33317 14.6666C9.33228 15.0435 9.46028 15.3604 9.71717 15.6173C9.97406 15.8742 10.2905 16.0017 10.6665 16ZM10.6665 12H17.3332C17.7109 12 18.0278 11.872 18.2838 11.616C18.5398 11.36 18.6674 11.0435 18.6665 10.6666C18.6656 10.2897 18.5376 9.97329 18.2825 9.71729C18.0274 9.46129 17.7109 9.33329 17.3332 9.33329H10.6665C10.2887 9.33329 9.97228 9.46129 9.71717 9.71729C9.46206 9.97329 9.33406 10.2897 9.33317 10.6666C9.33228 11.0435 9.46028 11.3604 9.71717 11.6173C9.97406 11.8742 10.2905 12.0017 10.6665 12ZM15.9998 29.3333C14.1554 29.3333 12.4221 28.9831 10.7998 28.2826C9.17762 27.5822 7.76651 26.6324 6.56651 25.4333C5.36651 24.2342 4.41673 22.8231 3.71717 21.2C3.01762 19.5768 2.66739 17.8435 2.66651 16C2.66562 14.1564 3.01584 12.4231 3.71717 10.8C4.41851 9.17685 5.36828 7.76574 6.56651 6.56663C7.76473 5.36751 9.17584 4.41774 10.7998 3.71729C12.4238 3.01685 14.1572 2.66663 15.9998 2.66663C17.8425 2.66663 19.5758 3.01685 21.1998 3.71729C22.8238 4.41774 24.235 5.36751 25.4332 6.56663C26.6314 7.76574 27.5816 9.17685 28.2838 10.8C28.9861 12.4231 29.3358 14.1564 29.3332 16C29.3305 17.8435 28.9803 19.5768 28.2825 21.2C27.5847 22.8231 26.635 24.2342 25.4332 25.4333C24.2314 26.6324 22.8203 27.5826 21.1998 28.284C19.5794 28.9853 17.8461 29.3351 15.9998 29.3333ZM15.9998 26.6666C18.9776 26.6666 21.4998 25.6333 23.5665 23.5666C25.6332 21.5 26.6665 18.9777 26.6665 16C26.6665 13.0222 25.6332 10.5 23.5665 8.43329C21.4998 6.36663 18.9776 5.33329 15.9998 5.33329C13.0221 5.33329 10.4998 6.36663 8.43317 8.43329C6.36651 10.5 5.33317 13.0222 5.33317 16C5.33317 18.9777 6.36651 21.5 8.43317 23.5666C10.4998 25.6333 13.0221 26.6666 15.9998 26.6666Z" fill="#F1D789"/>
</svg>
