<svg width="24" height="24" viewBox="0 0 24 24" fill="none" xmlns="http://www.w3.org/2000/svg">
<path d="M5 11.0001H7C7.28333 11.0001 7.52067 11.0961 7.712 11.2881C7.90333 11.4801 7.99933 11.7174 8 12.0001C8.00067 12.2827 7.90467 12.5201 7.712 12.7121C7.51933 12.9041 7.282 13.0001 7 13.0001H5C4.71667 13.0001 4.479 12.9041 4.287 12.7121C4.095 12.5201 3.99933 12.2827 4 12.0001C4.00067 11.7174 4.09667 11.4797 4.288 11.2871C4.47933 11.0944 4.71667 10.9987 5 11.0001ZM9.4 7.20007C9.23333 7.4334 9.01667 7.56673 8.75 7.60007C8.48333 7.6334 8.23333 7.56673 8 7.40006L6.4 6.20007C6.16667 6.0334 6.03333 5.81673 6 5.55006C5.96667 5.2834 6.03333 5.0334 6.2 4.80006C6.36667 4.56673 6.58333 4.4334 6.85 4.40006C7.11667 4.36673 7.36667 4.4334 7.6 4.60007L9.2 5.80006C9.43333 5.96673 9.56667 6.1834 9.6 6.45007C9.63333 6.71673 9.56667 6.96673 9.4 7.20007ZM6.4 17.8001L8 16.6001C8.23333 16.4334 8.48333 16.3667 8.75 16.4001C9.01667 16.4334 9.23333 16.5667 9.4 16.8001C9.56667 17.0334 9.63333 17.2834 9.6 17.5501C9.56667 17.8167 9.43333 18.0334 9.2 18.2001L7.6 19.4001C7.36667 19.5667 7.11667 19.6334 6.85 19.6001C6.58333 19.5667 6.36667 19.4334 6.2 19.2001C6.03333 18.9667 5.96667 18.7167 6 18.4501C6.03333 18.1834 6.16667 17.9667 6.4 17.8001ZM17 9.00006H20C20.2833 9.00006 20.5207 9.09606 20.712 9.28806C20.9033 9.48006 20.9993 9.7174 21 10.0001V14.0001C21 14.2834 20.904 14.5207 20.712 14.7121C20.52 14.9034 20.2827 14.9994 20 15.0001H17L13.7 18.3001C13.3833 18.6167 13.0207 18.6877 12.612 18.5131C12.2033 18.3384 11.9993 18.0257 12 17.5751L12 6.42506C12 5.97506 12.204 5.6624 12.612 5.48706C13.02 5.31173 13.3827 5.38273 13.7 5.70007L17 9.00006Z" fill="#F1D789"/>
</svg>
