<svg width="24" height="24" viewBox="0 0 24 24" fill="none" xmlns="http://www.w3.org/2000/svg">
<path d="M19 12.9999H17C16.7167 12.9999 16.4793 12.9039 16.288 12.7119C16.0967 12.5199 16.0007 12.2826 16 11.9999C15.9993 11.7173 16.0953 11.4799 16.288 11.2879C16.4807 11.0959 16.718 10.9999 17 10.9999H19C19.2833 10.9999 19.521 11.0959 19.713 11.2879C19.905 11.4799 20.0007 11.7173 20 11.9999C19.9993 12.2826 19.9033 12.5203 19.712 12.7129C19.5207 12.9056 19.2833 13.0013 19 12.9999ZM14.6 16.7999C14.7667 16.5666 14.9833 16.4333 15.25 16.3999C15.5167 16.3666 15.7667 16.4333 16 16.5999L17.6 17.7999C17.8333 17.9666 17.9667 18.1833 18 18.4499C18.0333 18.7166 17.9667 18.9666 17.8 19.1999C17.6333 19.4333 17.4167 19.5666 17.15 19.5999C16.8833 19.6333 16.6333 19.5666 16.4 19.3999L14.8 18.1999C14.5667 18.0333 14.4333 17.8166 14.4 17.5499C14.3667 17.2833 14.4333 17.0333 14.6 16.7999ZM17.6 6.19993L16 7.39994C15.7667 7.5666 15.5167 7.63327 15.25 7.59993C14.9833 7.5666 14.7667 7.43327 14.6 7.19993C14.4333 6.9666 14.3667 6.7166 14.4 6.44993C14.4333 6.18327 14.5667 5.9666 14.8 5.79993L16.4 4.59993C16.6333 4.43327 16.8833 4.3666 17.15 4.39993C17.4167 4.43327 17.6333 4.5666 17.8 4.79994C17.9667 5.03327 18.0333 5.28327 18 5.54993C17.9667 5.8166 17.8333 6.03327 17.6 6.19993ZM7 14.9999H4C3.71667 14.9999 3.47933 14.9039 3.288 14.7119C3.09667 14.5199 3.00067 14.2826 3 13.9999V9.99993C3 9.7166 3.096 9.47927 3.288 9.28793C3.48 9.0966 3.71733 9.0006 4 8.99993H7L10.3 5.69993C10.6167 5.38327 10.9793 5.31227 11.388 5.48693C11.7967 5.6616 12.0007 5.97427 12 6.42494V17.5749C12 18.0249 11.796 18.3376 11.388 18.5129C10.98 18.6883 10.6173 18.6173 10.3 18.2999L7 14.9999Z" fill="#FF4726"/>
</svg>
