<svg width="16" height="16" viewBox="0 0 16 16" fill="none" xmlns="http://www.w3.org/2000/svg">
<path d="M3.33333 14C2.96667 14 2.65289 13.8696 2.392 13.6087C2.13111 13.3478 2.00044 13.0338 2 12.6667V3.33333C2 2.96667 2.13067 2.65289 2.392 2.392C2.65333 2.13111 2.96711 2.00044 3.33333 2H12.6667C13.0333 2 13.3473 2.13067 13.6087 2.392C13.87 2.65333 14.0004 2.96711 14 3.33333H8.66667C7.87778 3.33333 7.23622 3.58067 6.742 4.07533C6.24778 4.57 6.00044 5.21156 6 6V10C6 10.7889 6.24733 11.4307 6.742 11.9253C7.23667 12.42 7.87822 12.6671 8.66667 12.6667H14C14 13.0333 13.8696 13.3473 13.6087 13.6087C13.3478 13.87 13.0338 14.0004 12.6667 14H3.33333ZM8.66667 11.3333C8.3 11.3333 7.98622 11.2029 7.72533 10.942C7.46444 10.6811 7.33378 10.3671 7.33333 10V6C7.33333 5.63333 7.464 5.31956 7.72533 5.05867C7.98667 4.79778 8.30044 4.66711 8.66667 4.66667H13.3333C13.7 4.66667 14.014 4.79733 14.2753 5.05867C14.5367 5.32 14.6671 5.63378 14.6667 6V10C14.6667 10.3667 14.5362 10.6807 14.2753 10.942C14.0144 11.2033 13.7004 11.3338 13.3333 11.3333H8.66667ZM10.6667 9C10.9556 9 11.1944 8.90556 11.3833 8.71667C11.5722 8.52778 11.6667 8.28889 11.6667 8C11.6667 7.71111 11.5722 7.47222 11.3833 7.28333C11.1944 7.09444 10.9556 7 10.6667 7C10.3778 7 10.1389 7.09444 9.95 7.28333C9.76111 7.47222 9.66667 7.71111 9.66667 8C9.66667 8.28889 9.76111 8.52778 9.95 8.71667C10.1389 8.90556 10.3778 9 10.6667 9Z" fill="#FF4726"/>
</svg>
