<svg width="32" height="32" viewBox="0 0 32 32" fill="none" xmlns="http://www.w3.org/2000/svg">
<path d="M5.33325 25.3337V13.3337C5.33325 12.9114 5.42792 12.5114 5.61725 12.1337C5.80659 11.7559 6.06747 11.4448 6.39992 11.2003L14.3999 5.20033C14.8666 4.84477 15.3999 4.66699 15.9999 4.66699C16.5999 4.66699 17.1333 4.84477 17.5999 5.20033L25.5999 11.2003C25.9333 11.4448 26.1946 11.7559 26.3839 12.1337C26.5733 12.5114 26.6675 12.9114 26.6666 13.3337V25.3337C26.6666 26.067 26.4053 26.695 25.8826 27.2177C25.3599 27.7403 24.7324 28.0012 23.9999 28.0003H19.9999C19.6221 28.0003 19.3057 27.8723 19.0506 27.6163C18.7955 27.3603 18.6675 27.0439 18.6666 26.667V20.0003C18.6666 19.6225 18.5386 19.3061 18.2826 19.051C18.0266 18.7959 17.7101 18.6679 17.3333 18.667H14.6666C14.2888 18.667 13.9724 18.795 13.7173 19.051C13.4621 19.307 13.3341 19.6234 13.3333 20.0003V26.667C13.3333 27.0448 13.2053 27.3617 12.9493 27.6177C12.6933 27.8737 12.3768 28.0012 11.9999 28.0003H7.99992C7.26659 28.0003 6.63903 27.7394 6.11725 27.2177C5.59547 26.6959 5.33414 26.0679 5.33325 25.3337Z" fill="white"/>
</svg>
