<svg width="16" height="16" viewBox="0 0 16 16" fill="none" xmlns="http://www.w3.org/2000/svg">
<path d="M6 1.99935V0.666016H10V1.99935H6ZM7.33333 9.33268H8.66667V5.33268H7.33333V9.33268ZM8 14.666C7.17778 14.666 6.40267 14.5078 5.67467 14.1913C4.94667 13.8749 4.31067 13.4442 3.76667 12.8993C3.22267 12.3545 2.79222 11.7182 2.47533 10.9907C2.15844 10.2631 2 9.48824 2 8.66602C2 7.84379 2.15844 7.06868 2.47533 6.34068C2.79222 5.61268 3.22267 4.97668 3.76667 4.43268C4.31067 3.88868 4.94689 3.45824 5.67533 3.14135C6.40378 2.82446 7.17867 2.66602 8 2.66602C8.68889 2.66602 9.35 2.77713 9.98333 2.99935C10.6167 3.22157 11.2111 3.54379 11.7667 3.96602L12.7 3.03268L13.6333 3.96602L12.7 4.89935C13.1222 5.4549 13.4444 6.04935 13.6667 6.68268C13.8889 7.31602 14 7.97713 14 8.66602C14 9.48824 13.8416 10.2633 13.5247 10.9914C13.2078 11.7193 12.7773 12.3553 12.2333 12.8993C11.6893 13.4433 11.0531 13.874 10.3247 14.1913C9.59622 14.5087 8.82133 14.6669 8 14.666Z" fill="#FF4726"/>
</svg>
