<svg width="32" height="32" viewBox="0 0 32 32" fill="none" xmlns="http://www.w3.org/2000/svg">
<path d="M5.3335 25.3327V13.3327C5.3335 12.9105 5.42816 12.5105 5.6175 12.1327C5.80683 11.7549 6.06772 11.4438 6.40016 11.1993L14.4002 5.19935C14.8668 4.84379 15.4002 4.66602 16.0002 4.66602C16.6002 4.66602 17.1335 4.84379 17.6002 5.19935L25.6002 11.1993C25.9335 11.4438 26.1948 11.7549 26.3842 12.1327C26.5735 12.5105 26.6677 12.9105 26.6668 13.3327V25.3327C26.6668 26.066 26.4055 26.694 25.8828 27.2167C25.3602 27.7393 24.7326 28.0002 24.0002 27.9993H20.0002C19.6224 27.9993 19.3059 27.8713 19.0508 27.6153C18.7957 27.3593 18.6677 27.0429 18.6668 26.666V19.9993C18.6668 19.6216 18.5388 19.3051 18.2828 19.05C18.0268 18.7949 17.7104 18.6669 17.3335 18.666H14.6668C14.2891 18.666 13.9726 18.794 13.7175 19.05C13.4624 19.306 13.3344 19.6225 13.3335 19.9993V26.666C13.3335 27.0438 13.2055 27.3607 12.9495 27.6167C12.6935 27.8727 12.3771 28.0002 12.0002 27.9993H8.00016C7.26683 27.9993 6.63927 27.7385 6.1175 27.2167C5.59572 26.6949 5.33438 26.0669 5.3335 25.3327Z" fill="black"/>
</svg>
