<svg width="32" height="32" viewBox="0 0 32 32" fill="none" xmlns="http://www.w3.org/2000/svg">
<path d="M18.7332 20.7327L17.7998 19.7993C17.5332 19.5327 17.2167 19.394 16.8505 19.3833C16.4843 19.3727 16.1674 19.5002 15.8998 19.766C15.6323 20.0318 15.499 20.3487 15.4998 20.7167C15.5007 21.0847 15.6341 21.4011 15.8998 21.666L17.7998 23.566C18.0665 23.8327 18.3776 23.966 18.7332 23.966C19.0887 23.966 19.3998 23.8327 19.6665 23.566L24.4332 18.7993C24.6998 18.5327 24.8278 18.2216 24.8172 17.866C24.8065 17.5105 24.6674 17.1993 24.3998 16.9327C24.1332 16.6882 23.8221 16.5607 23.4665 16.55C23.111 16.5393 22.7998 16.6669 22.5332 16.9327L18.7332 20.7327ZM10.6665 19.9993H11.9998C12.3776 19.9993 12.6945 19.8713 12.9505 19.6153C13.2065 19.3593 13.3341 19.0429 13.3332 18.666C13.3323 18.2891 13.2043 17.9727 12.9492 17.7167C12.6941 17.4607 12.3776 17.3327 11.9998 17.3327H10.6665C10.2887 17.3327 9.97228 17.4607 9.71717 17.7167C9.46206 17.9727 9.33406 18.2891 9.33317 18.666C9.33228 19.0429 9.46028 19.3598 9.71717 19.6167C9.97406 19.8736 10.2905 20.0011 10.6665 19.9993ZM10.6665 15.9993H17.3332C17.711 15.9993 18.0278 15.8713 18.2838 15.6153C18.5398 15.3593 18.6674 15.0429 18.6665 14.666C18.6656 14.2891 18.5376 13.9727 18.2825 13.7167C18.0274 13.4607 17.711 13.3327 17.3332 13.3327H10.6665C10.2887 13.3327 9.97228 13.4607 9.71717 13.7167C9.46206 13.9727 9.33406 14.2891 9.33317 14.666C9.33228 15.0429 9.46028 15.3598 9.71717 15.6167C9.97406 15.8736 10.2905 16.0011 10.6665 15.9993ZM10.6665 11.9993H17.3332C17.711 11.9993 18.0278 11.8713 18.2838 11.6153C18.5398 11.3593 18.6674 11.0429 18.6665 10.666C18.6656 10.2891 18.5376 9.97268 18.2825 9.71668C18.0274 9.46068 17.711 9.33268 17.3332 9.33268H10.6665C10.2887 9.33268 9.97228 9.46068 9.71717 9.71668C9.46206 9.97268 9.33406 10.2891 9.33317 10.666C9.33228 11.0429 9.46028 11.3598 9.71717 11.6167C9.97406 11.8736 10.2905 12.0011 10.6665 11.9993ZM15.9998 29.3327C14.1554 29.3327 12.4221 28.9825 10.7998 28.282C9.17762 27.5816 7.76651 26.6318 6.56651 25.4327C5.36651 24.2336 4.41673 22.8225 3.71717 21.1993C3.01762 19.5762 2.66739 17.8429 2.66651 15.9993C2.66562 14.1558 3.01584 12.4225 3.71717 10.7993C4.41851 9.17624 5.36828 7.76513 6.56651 6.56602C7.76473 5.3669 9.17584 4.41713 10.7998 3.71668C12.4238 3.01624 14.1572 2.66602 15.9998 2.66602C17.8425 2.66602 19.5758 3.01624 21.1998 3.71668C22.8238 4.41713 24.235 5.3669 25.4332 6.56602C26.6314 7.76513 27.5816 9.17624 28.2838 10.7993C28.9861 12.4225 29.3358 14.1558 29.3332 15.9993C29.3305 17.8429 28.9803 19.5762 28.2825 21.1993C27.5847 22.8225 26.635 24.2336 25.4332 25.4327C24.2314 26.6318 22.8203 27.582 21.1998 28.2833C19.5794 28.9847 17.8461 29.3345 15.9998 29.3327ZM15.9998 26.666C18.9776 26.666 21.4998 25.6327 23.5665 23.566C25.6332 21.4993 26.6665 18.9771 26.6665 15.9993C26.6665 13.0216 25.6332 10.4993 23.5665 8.43268C21.4998 6.36602 18.9776 5.33268 15.9998 5.33268C13.0221 5.33268 10.4998 6.36602 8.43317 8.43268C6.36651 10.4993 5.33317 13.0216 5.33317 15.9993C5.33317 18.9771 6.36651 21.4993 8.43317 23.566C10.4998 25.6327 13.0221 26.666 15.9998 26.666Z" fill="white"/>
</svg>
