<svg width="32" height="32" viewBox="0 0 32 32" fill="none" xmlns="http://www.w3.org/2000/svg">
<path d="M17.3334 16.2333L20.3334 19.2333C20.5779 19.4777 20.7001 19.7835 20.7001 20.1506C20.7001 20.5177 20.5779 20.8342 20.3334 21.1C20.0667 21.3666 19.7503 21.5 19.3841 21.5C19.0179 21.5 18.701 21.3666 18.4334 21.1L15.0667 17.7333C14.9334 17.6 14.8334 17.4502 14.7667 17.284C14.7001 17.1177 14.6667 16.9453 14.6667 16.7666V12C14.6667 11.6222 14.7948 11.3057 15.0507 11.0506C15.3068 10.7955 15.6232 10.6675 16.0001 10.6666C16.377 10.6657 16.6939 10.7937 16.9508 11.0506C17.2076 11.3075 17.3352 11.624 17.3334 12V16.2333ZM16.0001 7.99996C15.6223 7.99996 15.3059 7.87196 15.0507 7.61596C14.7956 7.35996 14.6676 7.04351 14.6667 6.66663V5.33329H17.3334V6.66663C17.3334 7.0444 17.2054 7.36129 16.9494 7.61729C16.6934 7.87329 16.377 8.00085 16.0001 7.99996ZM24.0001 16C24.0001 15.6222 24.1281 15.3057 24.3841 15.0506C24.6401 14.7955 24.9565 14.6675 25.3334 14.6666H26.6668V17.3333H25.3334C24.9556 17.3333 24.6392 17.2053 24.3841 16.9493C24.129 16.6933 24.001 16.3768 24.0001 16ZM16.0001 24C16.3779 24 16.6947 24.128 16.9508 24.384C17.2067 24.64 17.3343 24.9564 17.3334 25.3333V26.6666H14.6667V25.3333C14.6667 24.9555 14.7948 24.6391 15.0507 24.384C15.3068 24.1288 15.6232 24.0008 16.0001 24ZM8.00008 16C8.00008 16.3777 7.87208 16.6946 7.61608 16.9506C7.36008 17.2066 7.04364 17.3342 6.66675 17.3333H5.33342V14.6666H6.66675C7.04453 14.6666 7.36142 14.7946 7.61742 15.0506C7.87342 15.3066 8.00097 15.6231 8.00008 16ZM16.0001 29.3333C14.1556 29.3333 12.4223 28.9831 10.8001 28.2826C9.17786 27.5822 7.76675 26.6324 6.56675 25.4333C5.36675 24.2342 4.41697 22.8231 3.71742 21.2C3.01786 19.5768 2.66764 17.8435 2.66675 16C2.66586 14.1564 3.01608 12.4231 3.71742 10.8C4.41875 9.17685 5.36853 7.76574 6.56675 6.56663C7.76497 5.36751 9.17608 4.41774 10.8001 3.71729C12.4241 3.01685 14.1574 2.66663 16.0001 2.66663C17.8427 2.66663 19.5761 3.01685 21.2001 3.71729C22.8241 4.41774 24.2352 5.36751 25.4334 6.56663C26.6316 7.76574 27.5819 9.17685 28.2841 10.8C28.9863 12.4231 29.3361 14.1564 29.3334 16C29.3308 17.8435 28.9805 19.5768 28.2828 21.2C27.585 22.8231 26.6352 24.2342 25.4334 25.4333C24.2316 26.6324 22.8205 27.5826 21.2001 28.284C19.5796 28.9853 17.8463 29.3351 16.0001 29.3333ZM26.6668 16C26.6668 13.0222 25.6334 10.5 23.5667 8.43329C21.5001 6.36663 18.9779 5.33329 16.0001 5.33329C13.0223 5.33329 10.5001 6.36663 8.43342 8.43329C6.36675 10.5 5.33342 13.0222 5.33342 16C5.33342 18.9777 6.36675 21.5 8.43342 23.5666C10.5001 25.6333 13.0223 26.6666 16.0001 26.6666C18.9779 26.6666 21.5001 25.6333 23.5667 23.5666C25.6334 21.5 26.6668 18.9777 26.6668 16Z" fill="#F1D789"/>
</svg>
