<svg width="16" height="16" viewBox="0 0 16 16" fill="none" xmlns="http://www.w3.org/2000/svg">
<path d="M8.00008 7.99996C7.26675 7.99996 6.63897 7.73885 6.11675 7.21663C5.59453 6.6944 5.33341 6.06663 5.33341 5.33329C5.33341 4.59996 5.59453 3.97218 6.11675 3.44996C6.63897 2.92774 7.26675 2.66663 8.00008 2.66663C8.73342 2.66663 9.36119 2.92774 9.88341 3.44996C10.4056 3.97218 10.6667 4.59996 10.6667 5.33329C10.6667 6.06663 10.4056 6.6944 9.88341 7.21663C9.36119 7.73885 8.73342 7.99996 8.00008 7.99996ZM2.66675 12V11.4666C2.66675 11.0888 2.76408 10.7417 2.95875 10.4253C3.15341 10.1088 3.41164 9.86707 3.73341 9.69996C4.4223 9.35552 5.1223 9.09729 5.83341 8.92529C6.54453 8.75329 7.26675 8.66707 8.00008 8.66663C8.73342 8.66618 9.45564 8.7524 10.1667 8.92529C10.8779 9.09818 11.5779 9.3564 12.2667 9.69996C12.589 9.86663 12.8474 10.1084 13.0421 10.4253C13.2367 10.7422 13.3339 11.0893 13.3334 11.4666V12C13.3334 12.3666 13.203 12.6806 12.9421 12.942C12.6812 13.2033 12.3672 13.3337 12.0001 13.3333H4.00008C3.63341 13.3333 3.31964 13.2028 3.05875 12.942C2.79786 12.6811 2.66719 12.3671 2.66675 12Z" fill="#ECC46B"/>
</svg>
