<svg width="32" height="32" viewBox="0 0 32 32" fill="none" xmlns="http://www.w3.org/2000/svg">
<path d="M17.3332 16.2327L20.3332 19.2327C20.5776 19.4771 20.6998 19.7829 20.6998 20.15C20.6998 20.5171 20.5776 20.8336 20.3332 21.0993C20.0665 21.366 19.7501 21.4993 19.3838 21.4993C19.0176 21.4993 18.7007 21.366 18.4332 21.0993L15.0665 17.7327C14.9332 17.5993 14.8332 17.4496 14.7665 17.2833C14.6998 17.1171 14.6665 16.9447 14.6665 16.766V11.9993C14.6665 11.6216 14.7945 11.3051 15.0505 11.05C15.3065 10.7949 15.623 10.6669 15.9998 10.666C16.3767 10.6651 16.6936 10.7931 16.9505 11.05C17.2074 11.3069 17.335 11.6233 17.3332 11.9993V16.2327ZM15.9998 7.99935C15.6221 7.99935 15.3056 7.87135 15.0505 7.61535C14.7954 7.35935 14.6674 7.0429 14.6665 6.66602V5.33268H17.3332V6.66602C17.3332 7.04379 17.2052 7.36068 16.9492 7.61668C16.6932 7.87268 16.3767 8.00024 15.9998 7.99935ZM23.9998 15.9993C23.9998 15.6216 24.1278 15.3051 24.3838 15.05C24.6398 14.7949 24.9563 14.6669 25.3332 14.666H26.6665V17.3327H25.3332C24.9554 17.3327 24.639 17.2047 24.3838 16.9487C24.1287 16.6927 24.0007 16.3762 23.9998 15.9993ZM15.9998 23.9993C16.3776 23.9993 16.6945 24.1273 16.9505 24.3833C17.2065 24.6393 17.3341 24.9558 17.3332 25.3327V26.666H14.6665V25.3327C14.6665 24.9549 14.7945 24.6385 15.0505 24.3833C15.3065 24.1282 15.623 24.0002 15.9998 23.9993ZM7.99984 15.9993C7.99984 16.3771 7.87184 16.694 7.61584 16.95C7.35984 17.206 7.04339 17.3336 6.66651 17.3327H5.33317V14.666H6.66651C7.04428 14.666 7.36117 14.794 7.61717 15.05C7.87317 15.306 8.00073 15.6225 7.99984 15.9993ZM15.9998 29.3327C14.1554 29.3327 12.4221 28.9825 10.7998 28.282C9.17762 27.5816 7.76651 26.6318 6.56651 25.4327C5.36651 24.2336 4.41673 22.8225 3.71717 21.1993C3.01762 19.5762 2.66739 17.8429 2.66651 15.9993C2.66562 14.1558 3.01584 12.4225 3.71717 10.7993C4.41851 9.17624 5.36828 7.76513 6.56651 6.56602C7.76473 5.3669 9.17584 4.41713 10.7998 3.71668C12.4238 3.01624 14.1572 2.66602 15.9998 2.66602C17.8425 2.66602 19.5758 3.01624 21.1998 3.71668C22.8238 4.41713 24.235 5.3669 25.4332 6.56602C26.6314 7.76513 27.5816 9.17624 28.2838 10.7993C28.9861 12.4225 29.3358 14.1558 29.3332 15.9993C29.3305 17.8429 28.9803 19.5762 28.2825 21.1993C27.5847 22.8225 26.635 24.2336 25.4332 25.4327C24.2314 26.6318 22.8203 27.582 21.1998 28.2833C19.5794 28.9847 17.8461 29.3345 15.9998 29.3327ZM26.6665 15.9993C26.6665 13.0216 25.6332 10.4993 23.5665 8.43268C21.4998 6.36602 18.9776 5.33268 15.9998 5.33268C13.0221 5.33268 10.4998 6.36602 8.43317 8.43268C6.36651 10.4993 5.33317 13.0216 5.33317 15.9993C5.33317 18.9771 6.36651 21.4993 8.43317 23.566C10.4998 25.6327 13.0221 26.666 15.9998 26.666C18.9776 26.666 21.4998 25.6327 23.5665 23.566C25.6332 21.4993 26.6665 18.9771 26.6665 15.9993Z" fill="white"/>
</svg>
