<svg width="32" height="32" viewBox="0 0 32 32" fill="none" xmlns="http://www.w3.org/2000/svg">
<path d="M12 26.6666H6.66667C5.93333 26.6666 5.30578 26.4057 4.784 25.884C4.26222 25.3622 4.00089 24.7342 4 24V5.33329C4 4.59996 4.26133 3.9724 4.784 3.45063C5.30667 2.92885 5.93422 2.66751 6.66667 2.66663H25.3333C26.0667 2.66663 26.6947 2.92796 27.2173 3.45063C27.74 3.97329 28.0009 4.60085 28 5.33329V24C28 24.7333 27.7391 25.3613 27.2173 25.884C26.6956 26.4066 26.0676 26.6675 25.3333 26.6666H20L16.9333 29.7333C16.6667 30 16.3556 30.1333 16 30.1333C15.6444 30.1333 15.3333 30 15.0667 29.7333L12 26.6666ZM6.66667 24H13.0667L16 26.9333L18.9333 24H25.3333V5.33329H6.66667V24ZM15.8667 22.6666C16.3333 22.6666 16.728 22.5053 17.0507 22.1826C17.3733 21.86 17.5342 21.4657 17.5333 21C17.5324 20.5342 17.3711 20.1395 17.0493 19.816C16.7276 19.4924 16.3333 19.3315 15.8667 19.3333C15.4 19.3351 15.0053 19.4964 14.6827 19.8173C14.36 20.1382 14.1991 20.5324 14.2 21C14.2009 21.4675 14.3622 21.8622 14.684 22.184C15.0058 22.5057 15.4 22.6666 15.8667 22.6666ZM18.2 10.6666C18.2 11.0444 18.0778 11.4502 17.8333 11.884C17.5889 12.3177 17.1778 12.7897 16.6 13.3C16.2222 13.6333 15.9169 13.9502 15.684 14.2506C15.4511 14.5511 15.2564 14.8564 15.1 15.1666C15.0111 15.3444 14.9444 15.5222 14.9 15.7C14.8556 15.8777 14.8111 16.0777 14.7667 16.3C14.7222 16.6333 14.8111 16.9222 15.0333 17.1666C15.2556 17.4111 15.5444 17.5333 15.9 17.5333C16.2111 17.5333 16.4889 17.4222 16.7333 17.2C16.9778 16.9777 17.1444 16.6777 17.2333 16.3C17.3 15.9888 17.428 15.7 17.6173 15.4333C17.8067 15.1666 18.112 14.8222 18.5333 14.4C19.3111 13.6222 19.8613 12.9666 20.184 12.4333C20.5067 11.9 20.6676 11.3111 20.6667 10.6666C20.6667 9.46663 20.2613 8.49996 19.4507 7.76663C18.64 7.03329 17.5342 6.66663 16.1333 6.66663C15.1333 6.66663 14.2667 6.87774 13.5333 7.29996C12.8 7.72218 12.2111 8.31107 11.7667 9.06663C11.6111 9.33329 11.6058 9.61107 11.7507 9.89996C11.8956 10.1888 12.1231 10.3888 12.4333 10.5C12.7222 10.6111 13.0111 10.6111 13.3 10.5C13.5889 10.3888 13.8222 10.2111 14 9.96663C14.2444 9.65551 14.5444 9.40574 14.9 9.21729C15.2556 9.02885 15.6667 8.93418 16.1333 8.93329C16.7111 8.93329 17.2 9.09418 17.6 9.41596C18 9.73774 18.2 10.1546 18.2 10.6666Z" fill="#F1D789"/>
</svg>
