<svg width="32" height="32" viewBox="0 0 32 32" fill="none" xmlns="http://www.w3.org/2000/svg">
<path d="M12 26.667H6.66667C5.93333 26.667 5.30578 26.4061 4.784 25.8843C4.26222 25.3625 4.00089 24.7345 4 24.0003V5.33366C4 4.60033 4.26133 3.97277 4.784 3.45099C5.30667 2.92921 5.93422 2.66788 6.66667 2.66699H25.3333C26.0667 2.66699 26.6947 2.92833 27.2173 3.45099C27.74 3.97366 28.0009 4.60121 28 5.33366V24.0003C28 24.7337 27.7391 25.3617 27.2173 25.8843C26.6956 26.407 26.0676 26.6679 25.3333 26.667H20L16.9333 29.7337C16.6667 30.0003 16.3556 30.1337 16 30.1337C15.6444 30.1337 15.3333 30.0003 15.0667 29.7337L12 26.667ZM6.66667 24.0003H13.0667L16 26.9337L18.9333 24.0003H25.3333V5.33366H6.66667V24.0003ZM15.8667 22.667C16.3333 22.667 16.728 22.5057 17.0507 22.183C17.3733 21.8603 17.5342 21.4661 17.5333 21.0003C17.5324 20.5345 17.3711 20.1399 17.0493 19.8163C16.7276 19.4928 16.3333 19.3319 15.8667 19.3337C15.4 19.3354 15.0053 19.4968 14.6827 19.8177C14.36 20.1385 14.1991 20.5328 14.2 21.0003C14.2009 21.4679 14.3622 21.8625 14.684 22.1843C15.0058 22.5061 15.4 22.667 15.8667 22.667ZM18.2 10.667C18.2 11.0448 18.0778 11.4505 17.8333 11.8843C17.5889 12.3181 17.1778 12.7901 16.6 13.3003C16.2222 13.6337 15.9169 13.9505 15.684 14.251C15.4511 14.5514 15.2564 14.8568 15.1 15.167C15.0111 15.3448 14.9444 15.5225 14.9 15.7003C14.8556 15.8781 14.8111 16.0781 14.7667 16.3003C14.7222 16.6337 14.8111 16.9225 15.0333 17.167C15.2556 17.4114 15.5444 17.5337 15.9 17.5337C16.2111 17.5337 16.4889 17.4225 16.7333 17.2003C16.9778 16.9781 17.1444 16.6781 17.2333 16.3003C17.3 15.9892 17.428 15.7003 17.6173 15.4337C17.8067 15.167 18.112 14.8225 18.5333 14.4003C19.3111 13.6225 19.8613 12.967 20.184 12.4337C20.5067 11.9003 20.6676 11.3114 20.6667 10.667C20.6667 9.46699 20.2613 8.50033 19.4507 7.76699C18.64 7.03366 17.5342 6.66699 16.1333 6.66699C15.1333 6.66699 14.2667 6.8781 13.5333 7.30033C12.8 7.72255 12.2111 8.31144 11.7667 9.06699C11.6111 9.33366 11.6058 9.61144 11.7507 9.90033C11.8956 10.1892 12.1231 10.3892 12.4333 10.5003C12.7222 10.6114 13.0111 10.6114 13.3 10.5003C13.5889 10.3892 13.8222 10.2114 14 9.96699C14.2444 9.65588 14.5444 9.4061 14.9 9.21766C15.2556 9.02921 15.6667 8.93455 16.1333 8.93366C16.7111 8.93366 17.2 9.09455 17.6 9.41633C18 9.7381 18.2 10.155 18.2 10.667Z" fill="black"/>
</svg>
