<svg width="32" height="32" viewBox="0 0 32 32" fill="none" xmlns="http://www.w3.org/2000/svg">
<path d="M18.7334 20.7337L17.8001 19.8003C17.5334 19.5337 17.217 19.395 16.8507 19.3843C16.4845 19.3737 16.1676 19.5012 15.9001 19.767C15.6325 20.0328 15.4992 20.3497 15.5001 20.7177C15.501 21.0857 15.6343 21.4021 15.9001 21.667L17.8001 23.567C18.0668 23.8337 18.3779 23.967 18.7334 23.967C19.089 23.967 19.4001 23.8337 19.6667 23.567L24.4334 18.8003C24.7001 18.5337 24.8281 18.2225 24.8174 17.867C24.8068 17.5114 24.6676 17.2003 24.4001 16.9337C24.1334 16.6892 23.8223 16.5617 23.4668 16.551C23.1112 16.5403 22.8001 16.6679 22.5334 16.9337L18.7334 20.7337ZM10.6668 20.0003H12.0001C12.3779 20.0003 12.6948 19.8723 12.9508 19.6163C13.2068 19.3603 13.3343 19.0439 13.3334 18.667C13.3325 18.2901 13.2045 17.9737 12.9494 17.7177C12.6943 17.4617 12.3779 17.3337 12.0001 17.3337H10.6668C10.289 17.3337 9.97253 17.4617 9.71742 17.7177C9.46231 17.9737 9.33431 18.2901 9.33342 18.667C9.33253 19.0439 9.46053 19.3608 9.71742 19.6177C9.97431 19.8745 10.2908 20.0021 10.6668 20.0003ZM10.6668 16.0003H17.3334C17.7112 16.0003 18.0281 15.8723 18.2841 15.6163C18.5401 15.3603 18.6676 15.0439 18.6667 14.667C18.6659 14.2901 18.5379 13.9737 18.2827 13.7177C18.0276 13.4617 17.7112 13.3337 17.3334 13.3337H10.6668C10.289 13.3337 9.97253 13.4617 9.71742 13.7177C9.46231 13.9737 9.33431 14.2901 9.33342 14.667C9.33253 15.0439 9.46053 15.3608 9.71742 15.6177C9.97431 15.8745 10.2908 16.0021 10.6668 16.0003ZM10.6668 12.0003H17.3334C17.7112 12.0003 18.0281 11.8723 18.2841 11.6163C18.5401 11.3603 18.6676 11.0439 18.6667 10.667C18.6659 10.2901 18.5379 9.97366 18.2827 9.71766C18.0276 9.46166 17.7112 9.33366 17.3334 9.33366H10.6668C10.289 9.33366 9.97253 9.46166 9.71742 9.71766C9.46231 9.97366 9.33431 10.2901 9.33342 10.667C9.33253 11.0439 9.46053 11.3608 9.71742 11.6177C9.97431 11.8745 10.2908 12.0021 10.6668 12.0003ZM16.0001 29.3337C14.1556 29.3337 12.4223 28.9834 10.8001 28.283C9.17786 27.5825 7.76675 26.6328 6.56675 25.4337C5.36675 24.2345 4.41697 22.8234 3.71742 21.2003C3.01786 19.5772 2.66764 17.8439 2.66675 16.0003C2.66586 14.1568 3.01608 12.4234 3.71742 10.8003C4.41875 9.17721 5.36853 7.7661 6.56675 6.56699C7.76497 5.36788 9.17608 4.4181 10.8001 3.71766C12.4241 3.01721 14.1574 2.66699 16.0001 2.66699C17.8427 2.66699 19.5761 3.01721 21.2001 3.71766C22.8241 4.4181 24.2352 5.36788 25.4334 6.56699C26.6316 7.7661 27.5819 9.17721 28.2841 10.8003C28.9863 12.4234 29.3361 14.1568 29.3334 16.0003C29.3308 17.8439 28.9805 19.5772 28.2828 21.2003C27.585 22.8234 26.6352 24.2345 25.4334 25.4337C24.2316 26.6328 22.8205 27.583 21.2001 28.2843C19.5796 28.9857 17.8463 29.3354 16.0001 29.3337ZM16.0001 26.667C18.9779 26.667 21.5001 25.6337 23.5667 23.567C25.6334 21.5003 26.6668 18.9781 26.6668 16.0003C26.6668 13.0225 25.6334 10.5003 23.5667 8.43366C21.5001 6.36699 18.9779 5.33366 16.0001 5.33366C13.0223 5.33366 10.5001 6.36699 8.43342 8.43366C6.36675 10.5003 5.33342 13.0225 5.33342 16.0003C5.33342 18.9781 6.36675 21.5003 8.43342 23.567C10.5001 25.6337 13.0223 26.667 16.0001 26.667Z" fill="black"/>
</svg>
