<svg width="16" height="16" viewBox="0 0 16 16" fill="none" xmlns="http://www.w3.org/2000/svg">
<path d="M7.99984 7.99935C7.2665 7.99935 6.63873 7.73824 6.1165 7.21602C5.59428 6.69379 5.33317 6.06602 5.33317 5.33268C5.33317 4.59935 5.59428 3.97157 6.1165 3.44935C6.63873 2.92713 7.2665 2.66602 7.99984 2.66602C8.73317 2.66602 9.36095 2.92713 9.88317 3.44935C10.4054 3.97157 10.6665 4.59935 10.6665 5.33268C10.6665 6.06602 10.4054 6.69379 9.88317 7.21602C9.36095 7.73824 8.73317 7.99935 7.99984 7.99935ZM2.6665 11.9993V11.466C2.6665 11.0882 2.76384 10.7411 2.9585 10.4247C3.15317 10.1082 3.41139 9.86646 3.73317 9.69935C4.42206 9.3549 5.12206 9.09668 5.83317 8.92468C6.54428 8.75268 7.2665 8.66646 7.99984 8.66602C8.73317 8.66557 9.45539 8.75179 10.1665 8.92468C10.8776 9.09757 11.5776 9.35579 12.2665 9.69935C12.5887 9.86602 12.8472 10.1078 13.0418 10.4247C13.2365 10.7416 13.3336 11.0887 13.3332 11.466V11.9993C13.3332 12.366 13.2027 12.68 12.9418 12.9413C12.6809 13.2027 12.3669 13.3331 11.9998 13.3327H3.99984C3.63317 13.3327 3.31939 13.2022 3.0585 12.9413C2.79761 12.6805 2.66695 12.3665 2.6665 11.9993Z" fill="#FF4726"/>
</svg>
