<svg width="16" height="16" viewBox="0 0 16 16" fill="none" xmlns="http://www.w3.org/2000/svg">
<path d="M8.66683 8.11732V6.00065C8.66683 5.81176 8.60283 5.65354 8.47483 5.52598C8.34683 5.39843 8.18861 5.33443 8.00016 5.33398C7.81172 5.33354 7.6535 5.39754 7.5255 5.52598C7.3975 5.65443 7.3335 5.81265 7.3335 6.00065V8.38398C7.3335 8.47287 7.35016 8.5591 7.3835 8.64265C7.41683 8.72621 7.46683 8.8011 7.5335 8.86732L9.21683 10.5507C9.35016 10.684 9.50861 10.7507 9.69216 10.7507C9.87572 10.7507 10.0339 10.684 10.1668 10.5507C10.2891 10.4173 10.3502 10.2591 10.3502 10.076C10.3502 9.89287 10.2891 9.73998 10.1668 9.61732L8.66683 8.11732ZM8.00016 4.00065C8.18905 4.00065 8.3475 3.93665 8.4755 3.80865C8.6035 3.68065 8.66727 3.52243 8.66683 3.33398C8.66639 3.14554 8.60239 2.98732 8.47483 2.85932C8.34727 2.73132 8.18905 2.66732 8.00016 2.66732C7.81127 2.66732 7.65305 2.73132 7.5255 2.85932C7.39794 2.98732 7.33394 3.14554 7.3335 3.33398C7.33305 3.52243 7.39705 3.68087 7.5255 3.80932C7.65394 3.93776 7.81216 4.00154 8.00016 4.00065ZM12.0002 8.00065C12.0002 8.18954 12.0642 8.34798 12.1922 8.47598C12.3202 8.60398 12.4784 8.66776 12.6668 8.66732C12.8553 8.66687 13.0137 8.60287 13.1422 8.47532C13.2706 8.34776 13.3344 8.18954 13.3335 8.00065C13.3326 7.81176 13.2686 7.65354 13.1415 7.52598C13.0144 7.39843 12.8562 7.33443 12.6668 7.33398C12.4775 7.33354 12.3193 7.39754 12.1922 7.52598C12.0651 7.65443 12.0011 7.81265 12.0002 8.00065ZM8.00016 12.0007C7.81127 12.0007 7.65305 12.0647 7.5255 12.1927C7.39794 12.3207 7.33394 12.4789 7.3335 12.6673C7.33305 12.8558 7.39705 13.0142 7.5255 13.1426C7.65394 13.2711 7.81216 13.3349 8.00016 13.334C8.18816 13.3331 8.34661 13.2691 8.4755 13.142C8.60439 13.0149 8.66816 12.8567 8.66683 12.6673C8.6655 12.478 8.6015 12.3198 8.47483 12.1927C8.34816 12.0655 8.18994 12.0015 8.00016 12.0007ZM4.00016 8.00065C4.00016 7.81176 3.93616 7.65354 3.80816 7.52598C3.68016 7.39843 3.52194 7.33443 3.3335 7.33398C3.14505 7.33354 2.98683 7.39754 2.85883 7.52598C2.73083 7.65443 2.66683 7.81265 2.66683 8.00065C2.66683 8.18865 2.73083 8.3471 2.85883 8.47598C2.98683 8.60487 3.14505 8.66865 3.3335 8.66732C3.52194 8.66598 3.68039 8.60198 3.80883 8.47532C3.93727 8.34865 4.00105 8.19043 4.00016 8.00065ZM8.00016 14.6673C7.07794 14.6673 6.21128 14.4922 5.40016 14.142C4.58905 13.7918 3.8835 13.3169 3.2835 12.7173C2.6835 12.1178 2.20861 11.4122 1.85883 10.6006C1.50905 9.78909 1.33394 8.92243 1.3335 8.00065C1.33305 7.07887 1.50816 6.21221 1.85883 5.40065C2.2095 4.5891 2.68439 3.88354 3.2835 3.28398C3.88261 2.68443 4.58816 2.20954 5.40016 1.85932C6.21216 1.5091 7.07883 1.33398 8.00016 1.33398C8.9215 1.33398 9.78816 1.5091 10.6002 1.85932C11.4122 2.20954 12.1177 2.68443 12.7168 3.28398C13.3159 3.88354 13.7911 4.5891 14.1422 5.40065C14.4933 6.21221 14.6682 7.07887 14.6668 8.00065C14.6655 8.92243 14.4904 9.78909 14.1415 10.6006C13.7926 11.4122 13.3177 12.1178 12.7168 12.7173C12.1159 13.3169 11.4104 13.792 10.6002 14.1426C9.78994 14.4933 8.92327 14.6682 8.00016 14.6673Z" fill="#FF4726"/>
</svg>
