<svg width="16" height="16" viewBox="0 0 16 16" fill="none" xmlns="http://www.w3.org/2000/svg">
<path d="M6.66667 2.00033C6.47778 2.00033 6.31956 1.93633 6.192 1.80833C6.06444 1.68033 6.00044 1.5221 6 1.33366C5.99956 1.14521 6.06356 0.986992 6.192 0.858992C6.32044 0.730992 6.47867 0.666992 6.66667 0.666992H9.33333C9.52222 0.666992 9.68067 0.730992 9.80867 0.858992C9.93667 0.986992 10.0004 1.14521 10 1.33366C9.99956 1.5221 9.93556 1.68055 9.808 1.80899C9.68044 1.93744 9.52222 2.00121 9.33333 2.00033H6.66667ZM8 9.33366C8.18889 9.33366 8.34733 9.26966 8.47533 9.14166C8.60333 9.01366 8.66711 8.85544 8.66667 8.66699V6.00033C8.66667 5.81144 8.60267 5.65321 8.47467 5.52566C8.34667 5.3981 8.18844 5.3341 8 5.33366C7.81156 5.33321 7.65333 5.39721 7.52533 5.52566C7.39733 5.6541 7.33333 5.81233 7.33333 6.00033V8.66699C7.33333 8.85588 7.39733 9.01433 7.52533 9.14233C7.65333 9.27033 7.81156 9.3341 8 9.33366ZM8 14.667C7.17778 14.667 6.40267 14.5088 5.67467 14.1923C4.94667 13.8759 4.31067 13.4452 3.76667 12.9003C3.22267 12.3554 2.79222 11.7192 2.47533 10.9917C2.15844 10.2641 2 9.48921 2 8.66699C2 7.84477 2.15844 7.06966 2.47533 6.34166C2.79222 5.61366 3.22267 4.97766 3.76667 4.43366C4.31067 3.88966 4.94689 3.45921 5.67533 3.14233C6.40378 2.82544 7.17867 2.66699 8 2.66699C8.68889 2.66699 9.35 2.7781 9.98333 3.00033C10.6167 3.22255 11.2111 3.54477 11.7667 3.96699L12.2333 3.50033C12.3556 3.3781 12.5111 3.31699 12.7 3.31699C12.8889 3.31699 13.0444 3.3781 13.1667 3.50033C13.2889 3.62255 13.35 3.7781 13.35 3.96699C13.35 4.15588 13.2889 4.31144 13.1667 4.43366L12.7 4.90033C13.1222 5.45588 13.4444 6.05033 13.6667 6.68366C13.8889 7.31699 14 7.9781 14 8.66699C14 9.48921 13.8416 10.2643 13.5247 10.9923C13.2078 11.7203 12.7773 12.3563 12.2333 12.9003C11.6893 13.4443 11.0531 13.875 10.3247 14.1923C9.59622 14.5097 8.82133 14.6679 8 14.667Z" fill="black"/>
</svg>
