<svg width="24" height="24" viewBox="0 0 24 24" fill="none" xmlns="http://www.w3.org/2000/svg">
<path d="M4 11.0001H6C6.28333 11.0001 6.52067 11.0961 6.712 11.2881C6.90333 11.4801 6.99933 11.7174 7 12.0001C7.00067 12.2827 6.90467 12.5201 6.712 12.7121C6.51933 12.9041 6.282 13.0001 6 13.0001H4C3.71667 13.0001 3.479 12.9041 3.287 12.7121C3.095 12.5201 2.99933 12.2827 3 12.0001C3.00067 11.7174 3.09667 11.4797 3.288 11.2871C3.47933 11.0944 3.71667 10.9987 4 11.0001ZM8.4 7.20007C8.23333 7.4334 8.01667 7.56673 7.75 7.60007C7.48333 7.6334 7.23333 7.56673 7 7.40006L5.4 6.20007C5.16667 6.0334 5.03333 5.81673 5 5.55006C4.96667 5.2834 5.03333 5.0334 5.2 4.80006C5.36667 4.56673 5.58333 4.4334 5.85 4.40006C6.11667 4.36673 6.36667 4.4334 6.6 4.60007L8.2 5.80006C8.43333 5.96673 8.56667 6.1834 8.6 6.45007C8.63333 6.71673 8.56667 6.96673 8.4 7.20007ZM5.4 17.8001L7 16.6001C7.23333 16.4334 7.48333 16.3667 7.75 16.4001C8.01667 16.4334 8.23333 16.5667 8.4 16.8001C8.56667 17.0334 8.63333 17.2834 8.6 17.5501C8.56667 17.8167 8.43333 18.0334 8.2 18.2001L6.6 19.4001C6.36667 19.5667 6.11667 19.6334 5.85 19.6001C5.58333 19.5667 5.36667 19.4334 5.2 19.2001C5.03333 18.9667 4.96667 18.7167 5 18.4501C5.03333 18.1834 5.16667 17.9667 5.4 17.8001ZM16 9.00006H19C19.2833 9.00006 19.5207 9.09606 19.712 9.28806C19.9033 9.48006 19.9993 9.7174 20 10.0001V14.0001C20 14.2834 19.904 14.5207 19.712 14.7121C19.52 14.9034 19.2827 14.9994 19 15.0001H16L12.7 18.3001C12.3833 18.6167 12.0207 18.6877 11.612 18.5131C11.2033 18.3384 10.9993 18.0257 11 17.5751L11 6.42506C11 5.97506 11.204 5.6624 11.612 5.48706C12.02 5.31173 12.3827 5.38273 12.7 5.70007L16 9.00006Z" fill="#FF4726"/>
</svg>
